<?xml version="1.0" encoding="utf-8"?>
<!-- Generator: Adobe Illustrator 21.0.0, SVG Export Plug-In . SVG Version: 6.00 Build 0)  -->
<svg version="1.1" id="Layer_1" xmlns="http://www.w3.org/2000/svg" xmlns:xlink="http://www.w3.org/1999/xlink" x="0px" y="0px"
	 viewBox="0 0 1920 680" style="enable-background:new 0 0 1920 680;" xml:space="preserve">
<style type="text/css">
	.st0{fill:#580004;} 
	.st1{fill:none;}
	.st2{enable-background:new    ;}
	.st3{fill:#ff8533;}
</style>
<g id="flaticon1544005271-svg" transform="translate(0 -45.744)">
	<g id="Group_85157" transform="translate(0 69.216)">
		<g id="Group_85156" transform="translate(0 0)">
			<path id="Path_81694" class="st0" d="M445.3,109.6c-1.5,0-3,0.3-4.4,1c-3.1-4.1-8.8-5.3-13.3-3l-0.1,0.1l-4.4,2.6
				c-3.2-3.9-8.6-5-13.1-2.7l-0.2,0.1l-17,10.3c-3.8-1.1-8.1-2.4-12.1-3.5c-4.3-1.2-8.5-2.4-11.8-3.2c-1.7-0.4-3.1-0.8-4.3-1
				c-0.6-0.1-1.1-0.2-1.6-0.3c-0.4-0.1-0.9-0.1-1.3-0.1c-0.3,0-0.7,0-1,0.1c-1.2,0.2-3,0.5-5.1,1c-4.3,1-9.7,2.5-12.7,3.3v-5.1
				c0-3.5-2.9-6.4-6.4-6.4h-17.7c-3.5,0-6.4,2.9-6.4,6.4V159c0,3.5,2.9,6.4,6.4,6.4h17.7c3.5,0,6.4-2.9,6.4-6.4v-3.9
				c3.8,0.8,12.3,2.7,21.2,4.5c6,1.2,12.3,2.5,17.4,3.4c2.6,0.5,4.9,0.9,6.8,1.1c1.5,0.2,2.9,0.4,4.4,0.5c0.8,0,1.7-0.2,2.5-0.4
				c1.9-0.6,3.7-1.3,5.5-2.2c9.5-5,18.7-10.6,27.5-16.7c9.8-6.6,19-13,23.5-16.1c2.8-2,4.5-5.2,4.4-8.7
				C456,114.4,451.2,109.6,445.3,109.6z M338,159c0,0.9-0.7,1.6-1.6,1.6h-17.7c-0.9,0-1.6-0.7-1.6-1.6v-49.8c0-0.9,0.7-1.6,1.6-1.6
				h17.7c0.9,0,1.6,0.7,1.6,1.6V159z M448.9,125.1c-5.5,3.8-17.9,12.6-29.9,20.3c-6,3.9-11.9,7.5-16.7,10.2c-2,1.1-4.1,2.2-6.3,3.1
				c-0.7,0.3-1.5,0.6-2.2,0.8c-0.4,0.1-0.8,0.2-1.2,0.2c-1.2-0.1-2.5-0.2-3.7-0.4c-6.3-0.9-18.2-3.3-28.4-5.4
				c-5.1-1.1-9.8-2.1-13.2-2.8c-2-0.4-3.5-0.8-4.5-1v-30.9l1.8-0.5c2.5-0.7,6.4-1.7,9.9-2.6c1.7-0.4,3.4-0.8,4.7-1.1
				c0.6-0.1,1.2-0.2,1.7-0.3c0.3,0,0.5-0.1,0.8-0.1c0.2,0,0.4,0,0.6,0.1c1.3,0.2,4.1,0.8,7.4,1.7c10,2.6,25.8,7.3,32.1,9.3
				c2,0.5,3.9,1.5,5.5,2.9c0.6,0.6,1.1,1.2,1.5,2s0.5,1.6,0.5,2.4c0,3.7-3,6.8-6.8,6.8l-6.2-0.6l-21.2-2.7c-1.3-0.2-2.5,0.8-2.7,2.1
				s0.8,2.5,2.1,2.7l21.3,2.7l6.6,0.6h0.1c6.4,0,11.6-5.2,11.6-11.6c0-1.5-0.3-3.1-1-4.5c-1-1.9-2.4-3.6-4.2-4.7
				c-1.8-1.2-3.7-2.1-5.7-2.6c-1.1-0.3-2.5-0.8-4.1-1.2l13.1-8c2.2-1.1,4.9-0.8,6.7,0.9l-6.5,3.8c-1.1,0.7-1.5,2.2-0.7,3.3
				c0.7,1.1,2.1,1.4,3.2,0.8l15-8.9c2.3-1.2,5.1-0.7,6.9,1.1l-17.5,10.4c-1.1,0.7-1.5,2.2-0.8,3.3c0.7,1.1,2.2,1.5,3.3,0.8l0,0
				l18.9-11.2c0.6-0.1,1.1-0.4,1.5-0.9l0.6-0.3c0.8-0.4,1.7-0.7,2.6-0.7c3.3,0,6,2.7,6,6C451.3,122.3,450.4,124,448.9,125.1
				L448.9,125.1z"/>
		</g>
	</g>
	<g id="Group_85159" transform="translate(26.187 45.744)">
		<g id="Group_85158" transform="translate(0 0)">
			<path id="Path_81695" class="st0" d="M373.2,98.2c-2.1-1.4-4.5-2.5-7-3.1c-0.3-0.1-0.7-0.2-1-0.3V80.2c1.9,0.2,3.7,0.9,5.2,2
				c0.8,0.6,1.4,1.3,1.8,2.2c0.4,0.9,0.6,1.8,0.6,2.7c0,1.3,1.1,2.4,2.4,2.4s2.4-1.1,2.4-2.4l0,0c0-1.7-0.3-3.3-1.1-4.8
				c-1.2-2.3-3.1-4.2-5.4-5.3c-1.9-0.9-3.9-1.4-5.9-1.6v-2.1c0-1.3-1.1-2.4-2.4-2.4s-2.4,1.1-2.4,2.4v2c-1.6,0.1-3.2,0.4-4.7,1
				c-2.5,0.9-4.5,2.6-6,4.8c-1.1,1.8-1.8,3.9-1.8,6.1c-0.1,3.5,1.6,6.7,4.5,8.6c2.1,1.3,4.5,2.2,6.9,2.8l0.9,0.2v15.8
				c-1.9-0.1-3.8-0.8-5.3-2s-2.3-3-2.3-5c0-1.3-1.1-2.4-2.4-2.4s-2.4,1.1-2.4,2.4c0,3.3,1.4,6.5,4,8.6c2.4,1.9,5.4,3.1,8.5,3.2v2.1
				c0,1.3,1.1,2.4,2.4,2.4s2.4-1.1,2.4-2.4v-2.2c2.6-0.2,5.2-1,7.5-2.3c1.5-0.9,2.8-2.3,3.6-3.8c1.8-3.6,1.8-7.8,0-11.4
				C375.5,100.3,374.5,99.2,373.2,98.2z M360.4,93.7c-2-0.4-3.9-1.2-5.6-2.3c-0.6-0.4-1.1-1-1.5-1.7c-0.4-0.8-0.6-1.7-0.5-2.6
				c0-1.7,0.7-3.4,1.9-4.6c0.8-0.8,1.7-1.4,2.7-1.7c1-0.3,2-0.6,3-0.7V93.7L360.4,93.7z M372.1,110.8c-0.3,0.6-0.8,1.2-1.4,1.6
				c-1,0.8-2.2,1.3-3.5,1.6c-0.7,0.2-1.3,0.3-2,0.4V99.9c1.4,0.4,2.7,0.9,3.9,1.5c1.1,0.5,2,1.3,2.7,2.3c0.7,1.1,1.1,2.5,1,3.8
				C372.8,108.6,372.6,109.8,372.1,110.8L372.1,110.8z"/>
		</g>
	</g>
</g>
<g id="flaticon1544004235-svg" transform="translate(0 -0.005)">
	<g id="Group_85122" transform="translate(0 0.005)">
		<g id="Group_85121" transform="translate(0 0)">
			<path id="Path_81672" class="st0" d="M724.7,147.8c-2.6-4.3-6.4-7.6-11-9.6l6.6-6.6c1-1,1-2.5,0-3.5c-0.5-0.5-1.1-0.7-1.7-0.7
				h-19.7c-0.1,0-0.2,0-0.3,0c1.5-4,2.3-8.3,2.3-12.5c0-0.1,0-0.2,0-0.2l0,0v-0.1c0-1,0-2.1-0.1-3.1c-0.8-19-1.7-24.8-12.7-33.6
				c-6.3-4.8-14.1-7.3-22.1-7c-9,0.2-17.8,2.2-26,5.8l5.3,3.7c0,0-19.3,12.7-14.4,44.6c0,0.2,0.2,0.4,0.4,0.3l0,0
				c0.9,0,3.3-1.8,6.8-4.5c1.3,6.7,4.1,13.1,8.3,18.5l-0.1,8.5c0,0,0,0.1-0.1,0.1c-0.6,1.2-3.1,3.9-12.8,7.6
				c-3.5,1.7-7.1,3.2-10.9,4.2l-0.4,0.1c-5.5,1.8-9.3,7-9.3,12.8v16.2h95.9c12.2,0,22.1-9.9,22.1-22.1
				C730.6,160,728.4,153.4,724.7,147.8z M712.6,132.3l-3.9,3.9l-3.9-3.9H712.6z M697.1,131.6l6.6,6.6c-4.6,2-8.4,5.3-11,9.6
				c-0.1,0.2-0.2,0.4-0.4,0.5c-0.1-0.1-0.2-0.3-0.2-0.4c0,0,0-0.1-0.1-0.1l-0.1-8.5c1.9-2.5,3.5-5.2,4.9-8
				C697,131.4,697.1,131.5,697.1,131.6L697.1,131.6z M696,114.9c0,1.7-0.2,3.4-0.5,5.1h-6.6c2.7-2.1,3.3-5.9,1.2-8.6
				c-0.3-0.5-0.7-0.9-1.2-1.2h6.8C695.9,111.7,696,113.3,696,114.9z M662.3,105.3c6.8-3.3,14.2-5.1,21.8-5.3c0.7,0,1.5,0,2.2,0.1
				l5.2,5.3L662.3,105.3z M686.4,115.1c0,1-1.9,2.5-4.9,2.5s-4.9-1.5-4.9-2.5s1.9-2.5,4.9-2.5S686.4,114.1,686.4,115.1L686.4,115.1z
				 M674.1,120h-9.8c2.7-2.1,3.3-5.9,1.2-8.6c-0.3-0.5-0.7-0.9-1.2-1.2h9.8c-2.7,2.1-3.3,5.9-1.2,8.6
				C673.2,119.3,673.6,119.7,674.1,120L674.1,120z M635,116.9c-0.1-3.7,0.1-7.4,0.8-11c0.8-4.3,2.3-8.4,4.4-12.2
				c1.9-3.6,4.6-6.7,7.8-9.2l6.1-3.9l-3.5-2.5c5-1.5,10.2-2.2,15.4-2.3c6.8-0.3,13.5,1.8,19,5.9c2.2,1.7,4.2,3.6,5.9,5.7
				c1.3,1.7,2.3,3.6,2.9,5.6c0.8,2.9,1.3,5.9,1.5,9l-5.5-5.5l-1.3-1.3l-1.9-0.1c-0.8,0-1.7-0.1-2.5-0.1c-5.2,0.1-10.4,0.9-15.3,2.5
				c-4.7,1.5-9.3,3.5-13.7,5.9C648,107.3,641.3,111.8,635,116.9z M661.8,115.1c0,1-1.9,2.5-4.9,2.5s-4.9-1.5-4.9-2.5
				s1.9-2.5,4.9-2.5S661.8,114.1,661.8,115.1L661.8,115.1z M642.5,117.4c1.4-1.1,3-2.2,4.7-3.3c-0.1,0.4-0.1,0.7-0.1,1.1
				c0,1.9,0.9,3.7,2.5,4.9H643C642.7,119.1,642.6,118.2,642.5,117.4L642.5,117.4z M644.1,124.9h50.1c-1.8,5.2-4.7,10.1-8.4,14.2
				c-2.6,3.1-5.7,5.7-9.2,7.8c-2.3,1.5-4.8,2.4-7.5,2.6c-2.7-0.2-5.3-1.1-7.5-2.6c-3.4-2.1-6.5-4.7-9.2-7.8
				C648.8,135,646,130.2,644.1,124.9L644.1,124.9z M689.9,152.9c-0.4,0.9-0.8,1.9-1.2,2.8c-5.8,3.9-12.6,6-19.5,5.9
				c-6.3,0.1-12.5-1.7-17.8-5.1c-1.4-0.9-2.7-1.8-3.9-2.9c1.2-1,2.3-2.2,3-3.5c0.1-0.2,0.2-0.3,0.2-0.4l0.4-0.9v-1v-2.9
				c5.9,5.9,12.7,9.5,18,9.5s12.1-3.7,18-9.5v2.9v1l0.4,0.9c0,0.1,0.1,0.2,0.2,0.4C688.3,151.2,689.1,152.2,689.9,152.9z
				 M623.6,164.6l0.3-0.1c3.2-0.8,6.2-2,9.2-3.4c0.8-0.4,1.5-0.7,2.1-1c2.8-1,5.5-2.2,8.1-3.6c7,6.6,16.3,10.3,25.9,10.1
				c6.2,0,12.2-1.4,17.8-4.1c-0.2,1.4-0.4,2.8-0.4,4.2c0,1.7,0.2,3.3,0.6,4.9h-69.3C618.2,168.4,620.4,165.7,623.6,164.6z
				 M669.2,184h-51.5v-7.4h71.2c1.4,2.9,3.4,5.4,5.9,7.4H669.2z M708.7,184c-9.5,0-17.2-7.7-17.2-17.2c0.3-5.8,2.1-11.4,5.4-16.3
				c3.5-5.3,7.8-8.3,11.9-8.3c4,0,8.4,3,11.9,8.3c3.2,4.8,5.1,10.4,5.4,16.2C725.9,176.3,718.2,183.9,708.7,184L708.7,184z"/>
		</g>
	</g>
	<g id="Group_85124" transform="translate(36.459 33.339)">
		<g id="Group_85123">
			<path id="Path_81673" class="st0" d="M674.7,129.9V126h4.9c1.4,0,2.5-1.1,2.5-2.5s-1.1-2.5-2.5-2.5h-4.9v-2.5
				c0-1.4-1-2.5-2.4-2.5s-2.5,1-2.5,2.4c0,0.1,0,0.1,0,0.2v2.5h-4.9c-1.4,0-2.5,1.1-2.5,2.5c0,0.7,0.3,1.3,0.7,1.7l6.7,6.7v3.9h-4.9
				c-1.4,0-2.5,1.1-2.5,2.5s1.1,2.5,2.5,2.5h4.9v2.5c0,1.4,1,2.5,2.4,2.5s2.5-1,2.5-2.4c0-0.1,0-0.1,0-0.2v-2.5h4.9
				c1.4,0,2.5-1.1,2.5-2.5c0-0.7-0.3-1.3-0.7-1.7L674.7,129.9z"/>
		</g>
	</g>
</g>
<path id="Path_81670" class="st0" d="M1019.5,181.5v7.4h-118v-118h14.8v7.4h-7.4V93h7.4v7.4h-7.4v14.8h7.4v7.4h-7.4v14.8h7.4v7.4
	h-7.4v14.8h7.4v7.4h-7.4v14.8h110.6V181.5z M934.6,166.7c6.1,0,11.1-4.9,11.1-11c0-2.3-0.7-4.6-2.1-6.5l14.1-14.1
	c4.4,3.1,10.3,2.7,14.1-1.1l12.2,8.9c-0.9,1.6-1.4,3.5-1.5,5.4c0,6.1,4.9,11.1,11,11.1s11.1-4.9,11.1-11c0-4.1-2.2-7.9-5.8-9.8
	l11.1-44.5l7.1,1.8l-5.1-17.7l-12.8,13.2l7.1,1.8l-11.1,44.2c-0.6-0.1-1.2-0.2-1.7-0.2c-2.7,0-5.3,1-7.3,2.8l-12.3-9
	c0.8-1.5,1.2-3.2,1.2-4.9c0-6.1-4.9-11.1-11-11.1s-11.1,4.9-11.1,11c0,2.3,0.7,4.6,2.1,6.5l-14,14.2c-5-3.5-11.9-2.4-15.4,2.6
	s-2.4,11.9,2.6,15.4C930.1,166,932.3,166.7,934.6,166.7L934.6,166.7z"/>
<path id="Path_81671" class="st0" d="M1197.4,181.5h110.7v7.4h-118v-118h7.4L1197.4,181.5L1197.4,181.5z M1282.3,140.9v14.8h22.1
	v-14.8H1282.3 M1278.6,137.2h29.5v29.5h-29.5V137.2z M1245.4,111.4v22.1h22.1v-22.1H1245.4 M1241.7,107.7h29.5v59h-29.5V107.7z
	 M1208.5,74.5V104h22.1V74.5H1208.5 M1204.8,70.8h29.5v95.9h-29.5V70.8z"/>
<path id="flaticon1544004412-svg_1_" class="st0" d="M1577.2,117.6l21.4-12.2l-60.8-34.6l-60.8,34.6l21.4,12.2l-21.4,12.1l21.4,12.2
	L1477,154l60.8,34.8l60.8-34.8l-21.4-12.1l21.4-12.2L1577.2,117.6z M1537.7,75.9l51.9,29.5l-51.9,29.7l-51.9-29.7L1537.7,75.9z
	 M1502.7,120.1l35,20l35-20l16.9,9.6l-51.9,29.7l-51.9-29.7L1502.7,120.1z M1589.6,154.1l-51.9,29.7l-51.9-29.7l16.9-9.6l35,20
	l35-20L1589.6,154.1z"/>
<g id="flaticon1544004589-svg" transform="translate(-28.019 0)">
	<g id="Group_85132" transform="translate(28.019 0)">
		<g id="Group_85131" transform="translate(0)">
			<path id="Path_81677" class="st0" d="M431.5,454.7c-4.8-17.2-18.3-30.6-35.5-35.5c4.3-3.2,5.2-9.4,2-13.7
				c-1.9-2.5-4.8-3.9-7.9-3.9h-15.7c-5.4,0-9.8,4.4-9.8,9.8c0,3.1,1.4,6,3.9,7.9c-27.2,7.6-43.1,35.8-35.5,63s35.8,43.1,63,35.5
				C423.2,510.1,439.1,481.9,431.5,454.7L431.5,454.7z M374.4,405.5h15.7c3.3,0,5.9,2.6,5.9,5.9s-2.6,5.9-5.9,5.9h-15.7
				c-3.3,0-5.9-2.6-5.9-5.9C368.5,408.2,371.1,405.5,374.4,405.5z M382.2,515.7c-26.1,0-47.2-21.1-47.2-47.2s21.1-47.2,47.2-47.2
				s47.2,21.1,47.2,47.2l0,0C429.4,494.5,408.3,515.7,382.2,515.7z"/>
		</g>
	</g>
	<g id="Group_85134" transform="translate(28.025 3.332)">
		<g id="Group_85133" transform="translate(0)">
			<path id="Path_81678" class="st0" d="M340.9,406.1c-5.4,0-9.8,4.4-9.8,9.8s4.4,9.8,9.8,9.8s9.8-4.4,9.8-9.8l0,0
				C350.7,410.5,346.4,406.1,340.9,406.1z M340.9,421.9c-3.3,0-5.9-2.6-5.9-5.9s2.6-5.9,5.9-5.9s5.9,2.6,5.9,5.9
				C346.8,419.2,344.2,421.9,340.9,421.9z"/>
		</g>
	</g>
	<g id="Group_85136" transform="translate(63.851 3.332)">
		<g id="Group_85135" transform="translate(0)">
			<path id="Path_81679" class="st0" d="M389.7,406.1c-5.4,0-9.8,4.4-9.8,9.8s4.4,9.8,9.8,9.8s9.8-4.4,9.8-9.8l0,0
				C399.5,410.5,395.1,406.1,389.7,406.1z M389.7,421.9c-3.3,0-5.9-2.6-5.9-5.9s2.6-5.9,5.9-5.9s5.9,2.6,5.9,5.9
				C395.6,419.2,392.9,421.9,389.7,421.9z"/>
		</g>
	</g>
	<g id="Group_85138" transform="translate(47.177 9.998)">
		<g id="Group_85137">
			<path id="Path_81680" class="st0" d="M363.1,415.2v3.9c21,0,38.2,16.5,39.3,37.4h-33.8c-1.1-3.1-4.5-4.7-7.5-3.6
				c-3.1,1.1-4.7,4.5-3.6,7.5c1.1,3.1,4.5,4.7,7.5,3.6c1.7-0.6,3-1.9,3.6-3.6h35.8c1.1,0,2-0.9,2-2
				C406.3,434.6,387,415.2,363.1,415.2z M363.1,460.5c-1.1,0-2-0.9-2-2s0.9-2,2-2s2,0.9,2,2l0,0C365,459.6,364.2,460.5,363.1,460.5z
				"/>
		</g>
	</g>
	<g id="Group_85140" transform="translate(59.11 37.751)">
		<g id="Group_85139">
			
				<rect id="Rectangle_95" x="377" y="452.6" transform="matrix(0.7071 -0.7071 0.7071 0.7071 -213.2345 402.2288)" class="st0" width="3.9" height="11.8"/>
		</g>
	</g>
	<g id="Group_85142" transform="translate(48.854 42.492)">
		<g id="Group_85141">
			<rect id="Rectangle_96" x="359.4" y="459.4" class="st0" width="3.9" height="11.8"/>
		</g>
	</g>
	<g id="Group_85144" transform="translate(35.542 37.753)">
		<g id="Group_85143" transform="translate(0)">
			
				<rect id="Rectangle_97" x="341" y="456.6" transform="matrix(0.7071 -0.7071 0.7071 0.7071 -222.6292 379.5919)" class="st0" width="11.8" height="3.9"/>
		</g>
	</g>
	<g id="Group_85146" transform="translate(30.524 27.495)">
		<g id="Group_85145" transform="translate(0)">
			<rect id="Rectangle_98" x="334.5" y="439" class="st0" width="11.8" height="3.9"/>
		</g>
	</g>
	<g id="Group_85148" transform="translate(35.548 14.189)">
		<g id="Group_85147" transform="translate(0)">
			
				<rect id="Rectangle_99" x="344.9" y="420.6" transform="matrix(0.7071 -0.7071 0.7071 0.7071 -199.999 370.1999)" class="st0" width="3.9" height="11.8"/>
		</g>
	</g>
</g>
<path id="flaticon1544004638-svg" class="st0" d="M732.4,442.9v-32c0-5.1-4.2-9.3-9.3-9.3H615.3c-5.1,0-9.3,4.2-9.3,9.3V476
	c0,5.1,4.2,9.3,9.3,9.3h30.5l-3.5,3.8h-5.2c-1.2,0-2.2,1-2.2,2.2s1,2.2,2.2,2.2h30v20.8c0,3,2.4,5.4,5.4,5.4h23.2
	c3,0,5.4-2.4,5.4-5.4v-4.4h29c4.1,0,7.4-3.3,7.4-7.4V450C737.6,446.7,735.5,443.8,732.4,442.9L732.4,442.9z M733.3,449.9v0.6h-49.6
	v-0.6c0-1.7,1.4-3.1,3.1-3.1h43.4C731.9,446.9,733.3,448.2,733.3,449.9L733.3,449.9z M695.8,468.2h-12v-13.3h49.6v42.7h-32.1v-23.9
	C701.2,470.6,698.8,468.1,695.8,468.2L695.8,468.2z M696.9,476.4h-25.4v-2.8c0-0.6,0.5-1.1,1.1-1.1h23.2c0.6,0,1.1,0.5,1.1,1.1
	L696.9,476.4L696.9,476.4z M728.1,413v29.5h-41.3c-4.1,0-7.4,3.3-7.4,7.4v18.2h-6.8c-3,0-5.4,2.4-5.4,5.4h-56.8V413H728.1L728.1,413
	z M671.5,480.7h25.4V507h-25.4V480.7z M615.3,405.9h107.8c1.9,0,3.7,1.1,4.5,2.8H610.9C611.7,407,613.4,405.9,615.3,405.9
	L615.3,405.9z M610.7,477.9h56.4v3.1h-51.8C613.3,481,611.5,479.8,610.7,477.9z M648.3,489.1l3.5-3.8h15.4v3.8H648.3z M695.8,515.3
	h-23.2c-0.6,0-1.1-0.5-1.1-1.1v-2.8h25.4v2.8C696.9,514.8,696.4,515.3,695.8,515.3L695.8,515.3z M730.2,505.5h-29v-3.7h32.1v0.6
	C733.3,504.1,731.9,505.5,730.2,505.5L730.2,505.5z"/>
<g id="flaticon1544004679-svg" transform="translate(0 -0.05)">
	<g id="Group_85149" transform="translate(0 0.05)">
		<path id="Path_81681" class="st0" d="M960.5,401.6c-23.6,0-45,14.1-54.3,35.8l-0.7,0.2l0.3,0.9c-12.2,30.2,2.4,64.6,32.6,76.8
			c30.2,12.2,64.6-2.4,76.8-32.6c12.2-30.2-2.4-64.6-32.6-76.8C975.6,403.1,968,401.6,960.5,401.6z M1006.8,490.4l-3-3v-7.1
			c0-0.3-0.1-0.6-0.2-0.9l-7.7-15.3v-7.4c0-0.7-0.3-1.3-0.9-1.6l-5.9-3.9c-0.5-0.3-1-0.4-1.6-0.3l-7.2,1.8l-12.1-5.2l-1.7-11.7
			l4.6-4.6h9.9l3.3,5c0.3,0.5,0.8,0.8,1.3,0.8l11.8,2c0.3,0.1,0.6,0,0.9-0.1l10.9-3.6C1018.4,452.7,1017.4,473.8,1006.8,490.4
			L1006.8,490.4z M998.6,421l-3.2,2.1l-8.9-1.8l-5.8-1.9c-0.4-0.1-0.7-0.1-1.1,0l-7.3,1.8l-3.2-1.1l2.4-4.8h6.7
			c0.3,0,0.6-0.1,0.9-0.2l6.8-3.4C990.5,414.2,994.8,417.3,998.6,421z M938.9,409.9l4.7,3.1c0.2,0.2,0.5,0.3,0.8,0.3l9.5,1.6
			l-0.9,2.8l-5,1.7c-0.4,0.1-0.8,0.5-1.1,0.9l-5.7,9.4l-9.1,5.4l-13.4,1.9c-1,0.1-1.7,1-1.7,1.9v5.9c0,0.5,0.2,1,0.6,1.4l3.4,3.4
			v3.4l-8.2-5.5l-3-8.9C915.6,425.7,925.9,415.5,938.9,409.9z M933.3,474.4l-8.9-1.8l-3.3-6.6v-4.6l7.3-7.3l2.7,5.4
			c0.3,0.7,1,1.1,1.8,1.1h12.7l5.3,8.9c0.4,0.6,1,0.9,1.7,0.9h5.5l-1.4,6.9l-7.4,7.4c-0.4,0.4-0.6,0.9-0.6,1.4v4.9l-7.1,5.3
			c-0.5,0.4-0.8,1-0.8,1.6v7.1l-2.4-0.8l-3.5-8.6v-19.3C934.9,475.4,934.2,474.6,933.3,474.4z M927.4,504.7
			c-18.5-13.9-26.4-38-19.6-60.1l1.6,4.9c0.1,0.4,0.4,0.8,0.8,1l9.8,6.5l-2.2,2.2c-0.4,0.4-0.6,0.9-0.6,1.4v5.9
			c0,0.3,0.1,0.6,0.2,0.9l3.9,7.9c0.3,0.5,0.8,0.9,1.4,1l8.3,1.7v18c0,0.2,0,0.5,0.1,0.7l3.9,9.8c0.2,0.5,0.7,1,1.2,1.1l5.9,2
			c0.2,0.1,0.4,0.1,0.6,0.1c1.1,0,2-0.9,2-2l0,0V499l7.1-5.3c0.5-0.4,0.8-1,0.8-1.6V487l7.3-7.3c0.3-0.3,0.5-0.6,0.5-1l2-9.8
			c0.2-1.1-0.5-2.1-1.5-2.3c-0.1,0-0.3,0-0.4,0h-6.8l-5.3-8.9c-0.4-0.6-1-0.9-1.7-0.9h-12.6l-3.4-6.8c-0.3-0.6-0.8-1-1.4-1.1
			c-0.6-0.1-1.3,0.1-1.7,0.6L925,452v-3.1c0-0.5-0.2-1-0.6-1.4l-3.4-3.4v-3.4l12.1-1.7c0.3,0,0.5-0.1,0.7-0.3l9.8-5.9
			c0.3-0.2,0.5-0.4,0.7-0.7l5.5-9.2l5.2-1.7c0.6-0.2,1.1-0.7,1.2-1.2l2-5.9c0.3-1-0.2-2.1-1.3-2.5c-0.1,0-0.2-0.1-0.3-0.1l-11.4-1.9
			l-2-1.3c12.4-4,25.8-3.5,37.8,1.4l-3.6,1.8H970c-0.7,0-1.4,0.4-1.8,1.1l-3.9,7.8c-0.5,1-0.1,2.2,0.9,2.6c0.1,0,0.2,0.1,0.3,0.1
			l5.9,2c0.4,0.1,0.7,0.1,1.1,0l7.3-1.8l5.4,1.8c0.1,0,0.2,0,0.2,0.1l9.8,2c0.5,0.1,1,0,1.5-0.3l4.5-3c2.2,2.5,4.2,5.1,5.9,7.9
			l-9.7,3.2l-10.5-1.7l-3.5-5.2c-0.4-0.5-1-0.9-1.6-0.9H970c-0.5,0-1,0.2-1.4,0.6l-5.9,5.9c-0.4,0.4-0.6,1.1-0.6,1.7l2,13.8
			c0.1,0.7,0.5,1.3,1.2,1.5l13.8,5.9c0.4,0.2,0.8,0.2,1.3,0.1l7-1.8l4.3,2.9v6.8c0,0.3,0.1,0.6,0.2,0.9l7.7,15.3v7.4
			c0,0.5,0.2,1,0.6,1.4l4.1,4.1C986.2,518,951.7,522.9,927.4,504.7L927.4,504.7z"/>
	</g>
</g>
<g id="flaticon1544004744-svg" transform="translate(0 -92.184)">
	<g id="Group_85151" transform="translate(22.021 92.184)">
		<g id="Group_85150" transform="translate(0 0)">
			<path id="Path_81682" class="st0" d="M1254.8,467.1l-13.7-6.1c-1-0.4-1.6-1.4-1.6-2.5v-3.8c4.8-3.8,7.6-9.6,7.6-15.7v-5.3
				c1.6-0.9,2.5-2.5,2.5-4.3V429c0-11.1-9-20-20-20h-5.1c-11.1,0-20,9-20,20v4.7c0,1.5,0.7,3,1.9,4c0.2,0.2,0.4,0.3,0.6,0.4v1
				c0,6.1,2.8,11.9,7.6,15.7v3.8c0,1.1-0.6,2-1.6,2.5l-13.7,6.1c-4.5,2-7.4,6.5-7.4,11.4v31.3c0,1.3,1,2.4,2.3,2.4s2.4-1,2.4-2.3
				v-0.1v-31.3c0-0.3,0-0.5,0-0.8l6.3,6.3c1,1,1.5,2.3,1.5,3.7v22.1c0,1.3,1.1,2.3,2.4,2.3s2.3-1,2.3-2.3v-22.1c0-2.6-1-5.2-2.9-7
				l-7.5-7.5c0.7-0.7,1.5-1.3,2.4-1.7l13.5-6l10,10V510c0,1.3,1.1,2.3,2.4,2.3s2.3-1,2.3-2.3v-34.4l10-10l13.5,6
				c0.9,0.4,1.7,1,2.4,1.7l-7.5,7.5c-1.9,1.9-2.9,4.4-2.9,7v22.1c0,1.3,1,2.4,2.3,2.4s2.4-1,2.4-2.3v-0.1v-22.1
				c0-1.4,0.5-2.7,1.5-3.7l6.3-6.3c0,0.3,0,0.5,0,0.8v31.3c0,1.3,1,2.4,2.3,2.4s2.4-1,2.4-2.3v-0.1v-31.3
				C1262.2,473.6,1259.3,469.1,1254.8,467.1z M1227,471.1l-8.8-8.8c0.7-1.1,1-2.5,1-3.8v-1c5,2.1,10.5,2.1,15.5,0v1
				c0,1.3,0.4,2.6,1,3.8L1227,471.1z M1227,454.4c-8.5,0-15.3-6.9-15.3-15.3V438c1.6-0.7,3-1.6,4.3-2.8c0.9-0.9,1-2.4,0.1-3.3
				s-2.3-1-3.3-0.1c-1,1-2.2,1.7-3.5,2.1c0,0,0,0-0.1,0c0-0.1,0-0.1,0-0.2V429c0-8.5,6.9-15.3,15.3-15.3h5.1
				c8.5,0,15.3,6.9,15.3,15.3v0.5c0,0.1,0,0.1-0.1,0.2c-14.2,2.8-21.3-2.5-23.6-4.9c-0.9-0.9-2.4-1-3.3-0.1s-1,2.4-0.1,3.3
				c0,0,0,0,0.1,0.1c7.3,7.3,18.1,7.5,24.6,6.7v4.3C1242.3,447.6,1235.5,454.4,1227,454.4L1227,454.4z"/>
		</g>
	</g>
	<g id="Group_85153" transform="translate(0 98.301)">
		<g id="Group_85152" transform="translate(0 0)">
			<path id="Path_81683" class="st0" d="M1211,448.2v-5.1c0-6-3-11.5-8-14.7c1.6-5.2-1.3-10.8-6.5-12.5s-10.8,1.3-12.5,6.5
				c-0.6,1.9-0.6,4,0,5.9c-5,3.2-8,8.8-8,14.7v5.1c0,5.8,2.8,11.1,7.6,14.4v5.2c0,1-0.6,2-1.5,2.4l-8.2,4.1
				c-3.4,1.7-5.5,5.1-5.5,8.9v20.6c0,1.3,1.1,2.3,2.4,2.3s2.3-1,2.3-2.3v-19.6l3.9,3.9c1,1,1.5,2.3,1.5,3.7v12
				c0,1.3,1.1,2.3,2.4,2.3s2.3-1,2.3-2.3v-12c0-2.6-1-5.2-2.9-7l-5.4-5.4c0,0-0.1,0-0.1-0.1c0.3-0.3,0.7-0.6,1.1-0.8l8.2-4.1
				c0.4-0.2,0.8-0.5,1.2-0.7l5.8,5.8v24.3c0,1.3,1.1,2.3,2.4,2.3s2.3-1,2.3-2.3v-24.3l5.8-5.8c0.4,0.3,0.8,0.5,1.2,0.7l2.3,1.1
				c1.1,0.6,2.6,0.2,3.2-1c0.6-1.1,0.2-2.6-1-3.2c0,0-0.1,0-0.1-0.1l-2.3-1.1c-0.9-0.5-1.5-1.4-1.5-2.4v-5.2
				C1208.2,459.3,1211,453.9,1211,448.2z M1193.5,420.2c2.9,0,5.2,2.3,5.2,5.2c0,0.3,0,0.6-0.1,0.9c-3.3-1-6.9-1-10.3,0
				c-0.5-2.8,1.3-5.5,4.1-6.1C1192.8,420.2,1193.2,420.2,1193.5,420.2L1193.5,420.2z M1193.5,430.3c7.1,0,12.8,5.7,12.8,12.8v0.9
				c-5.8,1.8-12.1-0.1-16-4.8c-0.8-1-2.3-1.3-3.3-0.5c-0.1,0.1-0.2,0.1-0.3,0.2c-1.7,1.7-3.8,3.1-6.1,3.9
				C1180.9,435.9,1186.6,430.3,1193.5,430.3L1193.5,430.3z M1193.5,475.1l-5.5-5.5c0.2-0.6,0.2-1.3,0.2-1.9v-2.9
				c3.4,1.1,7,1.1,10.4,0v2.9c0,0.6,0.1,1.3,0.2,1.9L1193.5,475.1z M1193.5,460.9c-7.1,0-12.8-5.7-12.8-12.8v-0.5
				c2.8-0.7,5.4-2,7.6-3.8c1.3,1.2,2.8,2.3,4.4,3.2c2.8,1.5,5.9,2.3,9,2.3c1.5,0,3.1-0.2,4.6-0.5
				C1205.9,455.6,1200.3,460.9,1193.5,460.9L1193.5,460.9z"/>
		</g>
	</g>
	<g id="Group_85155" transform="translate(55.051 100.748)">
		<g id="Group_85154" transform="translate(0 0)">
			<path id="Path_81684" class="st0" d="M1269.2,466.8l-13.2-6.6c-0.9-0.5-1.5-1.4-1.5-2.4v-3.3c3.2-2.8,5.1-6.9,5.1-11.2v-2.7h0.2
				c1.3,0,2.4-1.1,2.4-2.4v-5.1c0-8.3-6.7-15-15-15h-5.1c-8.3,0-15,6.7-15,15v5.1c0,1.3,1.1,2.4,2.4,2.4h0.2v2.7
				c0,4.3,1.8,8.4,5.1,11.2v3.3c0,1-0.6,2-1.5,2.4c-1.2,0.6-1.7,2-1.1,3.2s2,1.7,3.2,1.1c0,0,0,0,0.1,0c0.4-0.2,0.8-0.5,1.2-0.7
				l5.8,5.8v31.9c0,1.3,1.1,2.3,2.4,2.3s2.3-1,2.3-2.3v-31.9l5.8-5.8c0.4,0.3,0.8,0.5,1.2,0.7l12.8,6.4l-3.9,3.9
				c-1.9,1.9-2.9,4.4-2.9,7v19.6c0,1.3,1,2.4,2.3,2.4s2.4-1,2.4-2.3v-0.1v-19.6c0-1.4,0.5-2.7,1.5-3.7l3.7-3.7
				c0.1,0.4,0.2,0.9,0.2,1.3v25.6c0,1.3,1,2.4,2.3,2.4s2.4-1,2.4-2.3v-0.1v-25.6C1274.7,471.9,1272.6,468.4,1269.2,466.8z
				 M1231.7,435.3v-2.2l0,0c0-5.7,4.6-10.3,10.3-10.3h5.1c5.7,0,10.3,4.6,10.3,10.3v2.6c-5.8-0.2-11.5-1.8-16.5-4.6
				c-0.9-0.6-2.2-0.5-3,0.3C1236.1,433.2,1234,434.5,1231.7,435.3z M1244.5,465.1l-5.5-5.5c0.2-0.6,0.2-1.3,0.2-1.9v-0.5
				c3.4,1.2,7.1,1.2,10.4,0v0.5c0,0.6,0.1,1.3,0.2,1.9L1244.5,465.1z M1244.5,453.5c-5.7,0-10.3-4.6-10.3-10.3v-3.8l0,0
				c2-0.8,3.9-2,5.5-3.4c4.7,2.3,9.8,3.8,15,4.3v2.9C1254.8,448.9,1250.2,453.5,1244.5,453.5L1244.5,453.5z"/>
		</g>
	</g>
</g>
<g>
	<path id="Path_81685" class="st0" d="M1486.5,420.5c1.1,0,1.9-0.9,1.9-1.9l0,0v-5.7c0-3.2,2.6-5.7,5.7-5.7h5.7
		c1.1,0,1.9-0.9,1.9-1.9c0-1.1-0.9-1.9-1.9-1.9l0,0h-5.7c-5.3,0-9.5,4.3-9.6,9.6v5.7C1484.6,419.7,1485.4,420.5,1486.5,420.5
		L1486.5,420.5z"/>
	<path id="Path_81686" class="st0" d="M1494.1,517.9h5.7c1.1,0,1.9-0.9,1.9-1.9s-0.9-1.9-1.9-1.9h-5.7c-3.2,0-5.7-2.6-5.7-5.7v-5.7
		c0-1.1-0.9-1.9-1.9-1.9c-1.1,0-1.9,0.9-1.9,1.9v5.7C1484.6,513.7,1488.9,517.9,1494.1,517.9z"/>
	<path id="Path_81687" class="st0" d="M1597.3,500.7c-1.1,0-1.9,0.9-1.9,1.9l0,0v5.7c0,3.2-2.6,5.7-5.7,5.7h-5.7
		c-1.1,0-1.9,0.9-1.9,1.9s0.9,1.9,1.9,1.9h5.7c5.3,0,9.5-4.3,9.6-9.6v-5.7C1599.2,501.6,1598.3,500.7,1597.3,500.7L1597.3,500.7z"/>
	<path id="Path_81688" class="st0" d="M1589.6,403.3h-5.7c-1.1,0-1.9,0.9-1.9,1.9c0,1.1,0.9,1.9,1.9,1.9h5.7c3.2,0,5.7,2.6,5.7,5.7
		v5.7c0,1.1,0.9,1.9,1.9,1.9c1.1,0,1.9-0.9,1.9-1.9v-5.7C1599.2,407.6,1594.9,403.3,1589.6,403.3z"/>
	<path id="Path_81689" class="st0" d="M1496,418.6v-3.8h3.8c1.1,0,1.9-0.9,1.9-1.9s-0.9-1.9-1.9-1.9h-3.8c-2.1,0-3.8,1.7-3.8,3.8
		v3.8c0,1.1,0.9,1.9,1.9,1.9C1495.2,420.5,1496,419.7,1496,418.6L1496,418.6z"/>
	<path id="Path_81690" class="st0" d="M1494.1,500.7c-1.1,0-1.9,0.9-1.9,1.9l0,0v3.8c0,2.1,1.7,3.8,3.8,3.8h3.8
		c1.1,0,1.9-0.9,1.9-1.9c0-1.1-0.9-1.9-1.9-1.9h-3.8v-3.8C1496,501.6,1495.2,500.7,1494.1,500.7L1494.1,500.7z"/>
	<path id="Path_81691" class="st0" d="M1587.7,502.7v3.8h-3.8c-1.1,0-1.9,0.9-1.9,1.9c0,1.1,0.9,1.9,1.9,1.9h3.8
		c2.1,0,3.8-1.7,3.8-3.8v-3.8c0-1.1-0.9-1.9-1.9-1.9S1587.7,501.6,1587.7,502.7L1587.7,502.7z"/>
	<path id="Path_81692_1_" class="st0" d="M1587.7,411h-3.8c-1.1,0-1.9,0.9-1.9,1.9s0.9,1.9,1.9,1.9h3.8v3.8c0,1.1,0.9,1.9,1.9,1.9
		s1.9-0.9,1.9-1.9v-3.8C1591.6,412.7,1589.9,411,1587.7,411z"/>
	<path id="Path_81693_1_" class="st0" d="M1593.5,456.8c0-1.1-0.9-1.9-1.9-1.9l0,0h-2c-1-24.9-20.9-44.8-45.8-45.8v-2
		c0-1.1-0.9-1.9-2-1.8c-1,0-1.8,0.8-1.8,1.8v2c-24.9,1-44.8,20.9-45.8,45.8h-2c-1.1,0-1.9,0.9-1.9,1.9c0,1.1,0.9,1.9,1.9,1.9h2
		c0.4,11.2,4.8,21.9,12.4,30.2c-0.3,0.1-0.5,0.3-0.8,0.4c-0.3,0.2-0.6,0.3-1,0.5c-1.7,0.6-3.2,1.8-4.3,3.3c-0.5,1-0.7,2.2-0.6,3.3
		c0,0.2,0,0.4,0,0.6v1.8c0,3.2,2.6,5.7,5.7,5.7h34.3v1.9c0,1.1,0.9,1.9,2,1.8c1,0,1.8-0.8,1.8-1.8v-1.9h34.4c3.2,0,5.7-2.6,5.7-5.7
		V497c0-0.2,0-0.4,0-0.6c0.1-1.1-0.1-2.3-0.6-3.3c-1.1-1.5-2.6-2.6-4.3-3.3c-0.4-0.2-0.7-0.3-1-0.5c-0.3-0.1-0.5-0.3-0.8-0.4
		c7.6-8.3,11.9-19,12.4-30.2h2C1592.6,458.7,1593.5,457.9,1593.5,456.8z M1503.7,498.8V497c0-0.2,0-0.5,0-0.7
		c-0.1-0.4,0-0.9,0.1-1.3c0.7-0.8,1.6-1.3,2.6-1.7c0.4-0.2,0.8-0.4,1.2-0.6c0.6-0.3,1.1-0.6,1.7-1c4.1,3.8,8.7,6.8,13.9,9h-17.6
		C1504.6,500.7,1503.7,499.9,1503.7,498.8L1503.7,498.8z M1519.3,447.8c0.6,0.1,1.2,0.4,1.7,0.8c0.1,2.3,0.4,4.5,0.9,6.8
		c0.2,0.9,0.3,1.7,0.4,2.5c-1.4-1.1-2.5-2.7-3-4.4C1518.9,451.6,1519,449.7,1519.3,447.8z M1526.1,462.1c0-0.2,0-0.5,0-0.8v-0.1
		c0-0.6,0.1-1.1,0.1-1.7c0-1.6-0.2-3.3-0.6-4.9c-1-5.1-1.2-10.3-0.8-15.5c0.6-12.2,15.2-13,15.7-13h2.6c0.6,0,15.2,0.8,15.8,13
		c0.4,5.2,0.2,10.4-0.8,15.5c-0.4,1.6-0.5,3.2-0.6,4.9c0,0.6,0,1.1,0.1,1.7v0.1c0,0.2,0,0.5,0,0.8c0.2,3.9,0.3,6.6-3.5,10.1
		c-0.1,0.1-0.1,0.1-0.2,0.2l-0.1,0.1c-1.7,1.6-3.2,3.5-4.5,5.5c-1.8,2.7-2.6,3.6-4.8,3.6h-5.4c-2.2,0-3-0.9-4.8-3.7
		c-1.3-2-2.8-3.8-4.5-5.5l-0.1-0.1c-0.1-0.1-0.1-0.1-0.2-0.2C1525.8,468.8,1525.9,466,1526.1,462.1L1526.1,462.1z M1561.9,455.4
		c0.4-2.2,0.7-4.5,0.9-6.7c0.5-0.5,1.1-0.7,1.7-0.8c0.4,1.9,0.4,3.8,0.1,5.6c-0.5,1.8-1.6,3.4-3.1,4.5
		C1561.6,457.1,1561.7,456.3,1561.9,455.4L1561.9,455.4z M1528.5,487.2c1.1,0,1.9-0.9,1.9-1.9l0,0V479c0.3,0.4,0.5,0.8,0.8,1.1
		c1.9,2.8,3.6,5.3,8,5.3h5.4c4.4,0,6.1-2.6,8-5.3c0.2-0.4,0.5-0.7,0.8-1.1v6.3c0,1.1,0.9,1.9,1.9,1.9s1.9-0.9,1.9-1.9v-1.7
		c0.5,0.4,1.1,0.7,1.7,1.1c0.3,2.6,0.7,9.3-2.5,13.6c-4.1,1.4-8.3,2.2-12.6,2.4v-1.9c0-1.1-0.9-1.9-2-1.8c-1,0-1.8,0.8-1.8,1.8v1.9
		c-4.3-0.2-8.5-1-12.6-2.4c-3.2-4.3-2.8-11-2.5-13.6c0.6-0.4,1.2-0.7,1.7-1.1v1.7C1526.6,486.3,1527.5,487.2,1528.5,487.2z
		 M1562.8,486.4c0.3,0.1,0.6,0.2,0.9,0.2c2.2,0.5,4.4,1.4,6.3,2.6c0.3,0.2,0.6,0.3,0.9,0.5c-2.8,2.4-5.8,4.5-9.1,6.2
		C1562.7,492.9,1563.1,489.6,1562.8,486.4z M1522,495.9c-3.3-1.7-6.4-3.8-9.1-6.2c0.3-0.2,0.6-0.3,0.9-0.5c1.9-1.2,4.1-2.1,6.3-2.6
		c0.3-0.1,0.6-0.2,0.9-0.2C1520.7,489.6,1521.1,492.9,1522,495.9z M1580,495c0.1,0.4,0.2,0.9,0.1,1.3c0,0.2,0,0.5,0,0.7v1.8
		c0,1.1-0.9,1.9-1.9,1.9l0,0h-17.5c5.1-2.2,9.8-5.2,13.8-9c0.6,0.3,1.1,0.6,1.7,1c0.3,0.2,0.7,0.4,1.2,0.6
		C1578.3,493.6,1579.2,494.2,1580,495L1580,495z M1573.8,487c-0.6-0.3-1.2-0.7-1.8-1c-2.3-1.4-4.8-2.5-7.5-3
		c-2.7-0.8-5.2-2.2-7.3-4.1v-4.1c3.4-3.1,5-7.6,4.3-12.2c3.4-1.7,5.9-4.7,6.8-8.4c0.5-3.2,0.8-8.7-2.3-9.8c-1-0.4-2.1-0.4-3.1,0
		c0-1.5,0-3.2-0.1-5.2c-0.6-12.5-13-16.4-19.5-16.6h-2.8c-6.5,0.3-18.8,4.1-19.4,16.6c-0.1,2-0.1,3.7-0.1,5.2c-1-0.3-2.1-0.3-3.1,0
		c-3.1,1.1-2.8,6.6-2.3,9.9c0.9,3.6,3.4,6.7,6.7,8.3c-0.7,4.5,1,9.1,4.3,12.1v4.1c-2.1,1.9-4.6,3.3-7.3,4.1c-2.7,0.6-5.2,1.6-7.5,3
		c-0.6,0.4-1.2,0.7-1.8,1c-7.3-7.7-11.5-17.7-12-28.2h1.9c1.1,0,1.9-0.9,1.9-1.9c0-1.1-0.9-1.9-1.9-1.9h-1.9c1-22.7,19.2-41,42-42
		v1.9c0,1.1,0.8,1.9,1.8,2s1.9-0.8,2-1.8v-0.1V413c22.8,1,41,19.2,42,42h-1.9c-1.1,0-1.9,0.9-1.9,1.9c0,1.1,0.9,1.9,1.9,1.9h1.9
		C1585.3,469.3,1581.1,479.3,1573.8,487L1573.8,487z"/>
</g>
<rect x="290.3" y="222.7" class="st1" width="185.8" height="109.7"/>
<g class="st2">
	<path class="st3" d="M370.3,259c0,0.6-0.3,0.9-0.7,1.1c-1.9,1-3.9,1.9-6.8,1.9c-6,0-10.5-4.1-10.5-10.8s4.5-10.8,10.5-10.8
		c2.9,0,5,0.8,6.8,1.9c0.4,0.2,0.6,0.5,0.7,1.1c0,0.6-0.5,1.2-1.2,1.2c-0.2,0-0.4,0-0.5-0.1c-1.6-0.8-3.1-1.4-5.5-1.4
		c-5.3,0-8,3.5-8,8.2s2.7,8.2,8,8.2c2.3,0,3.9-0.6,5.5-1.4c0.2-0.1,0.4-0.1,0.5-0.1C369.9,257.8,370.4,258.4,370.3,259z"/>
	<path class="st3" d="M387.9,254c0,4.7-3.1,7.9-7.7,7.9c-4.6,0-7.7-3.2-7.7-7.9c0-4.7,3-8,7.7-8C384.9,246.1,387.9,249.3,387.9,254z
		 M385.2,254c0-4-2.7-5.4-4.9-5.4c-2.3,0-4.9,1.5-4.9,5.4c0,4,2.6,5.5,4.9,5.5C382.5,259.5,385.2,258,385.2,254z"/>
	<path class="st3" d="M402.6,257.5c0,2.4-2,4.4-5.8,4.4c-2.2,0-3.9-0.5-5.5-1.3c-0.3-0.2-0.5-0.6-0.5-1c0-0.6,0.5-1.2,1.2-1.2
		c0.2,0,0.3,0,0.5,0.1c1.1,0.5,2.3,0.9,4.1,0.9c2.3,0,3.3-0.8,3.3-2.1c0-2.6-9-1-9-6.5c0-2.7,1.9-4.7,5.8-4.7c1.6,0,3.1,0.3,4.3,0.8
		c0.6,0.2,0.9,0.7,0.9,1.1c0,0.6-0.5,1.2-1.2,1.2c-0.1,0-0.3,0-0.4-0.1c-1-0.3-2.1-0.5-3.4-0.5c-2.2,0-3.4,0.9-3.4,2.1
		C393.5,253.8,402.6,251.7,402.6,257.5z"/>
	<path class="st3" d="M414.6,260.4c0,0.5-0.3,0.8-0.7,1c-0.7,0.3-1.5,0.5-2.5,0.5c-1.4,0-4.4-0.2-4.4-4v-9.3h-2.1
		c-0.3,0-0.6-0.2-0.6-0.6c0-0.2,0.1-0.4,0.3-0.5l4.1-4c0.1-0.1,0.3-0.3,0.5-0.3c0.3,0,0.6,0.3,0.6,0.6v2.4h3.4
		c0.7,0,1.2,0.5,1.2,1.2c0,0.7-0.5,1.2-1.2,1.2h-3.4v9.1c0,1.8,1.2,1.8,1.9,1.8c1,0,1.3-0.3,1.8-0.3
		C414,259.3,414.6,259.8,414.6,260.4z"/>
</g>
<g class="st2">
	<path class="st3" d="M336.9,296.4c0,0.7-0.6,1.3-1.3,1.3h-12c-0.8,0-1.4-0.6-1.4-1.3v-18.2c0-0.8,0.6-1.4,1.4-1.4h12
		c0.7,0,1.3,0.6,1.3,1.3s-0.6,1.3-1.3,1.3H325v6.6h9.6c0.7,0,1.3,0.6,1.3,1.3s-0.6,1.3-1.3,1.3H325v6.7h10.6
		C336.4,295.1,336.9,295.7,336.9,296.4z"/>
	<path class="st3" d="M344.4,280.7v1.6h3.8c0.7,0,1.2,0.5,1.2,1.2c0,0.7-0.5,1.2-1.2,1.2h-3.8v11.8c0,0.8-0.6,1.4-1.4,1.4
		c-0.8,0-1.4-0.6-1.4-1.4v-11.8h-1.8c-0.7,0-1.2-0.5-1.2-1.2c0-0.7,0.5-1.2,1.2-1.2h1.8v-1.7c0-3.8,2.4-5.2,4.5-5.2
		c1,0,1.9,0.2,2.6,0.6c0.4,0.2,0.7,0.6,0.7,1.1c0,0.6-0.5,1.1-1.1,1.1c-0.5,0-0.9-0.2-1.5-0.2C345.4,278.1,344.4,278.6,344.4,280.7z
		"/>
	<path class="st3" d="M364.6,295.5c0,0.5-0.4,0.9-0.8,1.1c-1.3,0.8-2.6,1.3-5.2,1.3c-4.9,0-7.8-2.9-7.8-7.9c0-4,2.2-8,7.2-8
		c4.6,0,7.1,3.6,7.1,7.6c0,0.8-0.5,1.4-1.4,1.4h-10.2c0.3,2.7,2,4.4,5.2,4.4c1.8,0,2.9-0.4,4-0.9c0.2-0.1,0.3-0.1,0.5-0.1
		C364,294.4,364.6,294.9,364.6,295.5z M353.5,288.8h8.8c-0.2-3.1-2.5-4.4-4.4-4.4S353.7,285.6,353.5,288.8z"/>
	<path class="st3" d="M381.3,295.5c0,0.4-0.2,0.8-0.6,1c-1,0.7-2.5,1.4-4.9,1.4c-4.3,0-8-2.9-8-7.9s3.8-8,8-8c2.4,0,3.9,0.8,4.9,1.4
		c0.4,0.2,0.6,0.6,0.6,1c0,0.6-0.5,1.2-1.1,1.2c-0.2,0-0.4,0-0.7-0.2c-1.1-0.5-1.9-1-3.5-1c-3.5,0-5.5,2.2-5.5,5.4s2,5.4,5.5,5.4
		c1.6,0,2.4-0.4,3.5-1c0.3-0.1,0.4-0.2,0.7-0.2C380.8,294.3,381.3,294.9,381.3,295.5z"/>
	<path class="st3" d="M393.4,296.4c0,0.5-0.3,0.8-0.7,1c-0.7,0.3-1.5,0.5-2.5,0.5c-1.4,0-4.4-0.2-4.4-4v-9.3h-2.1
		c-0.3,0-0.6-0.2-0.6-0.6c0-0.2,0.1-0.4,0.3-0.5l4.1-4c0.1-0.1,0.3-0.3,0.5-0.3c0.3,0,0.6,0.3,0.6,0.6v2.4h3.4
		c0.7,0,1.2,0.5,1.2,1.2c0,0.7-0.5,1.2-1.2,1.2h-3.4v9.1c0,1.8,1.2,1.8,1.9,1.8c1,0,1.3-0.3,1.8-0.3
		C392.9,295.3,393.4,295.8,393.4,296.4z"/>
	<path class="st3" d="M399.5,277.7c0,0.8-0.7,1.5-1.5,1.5c0,0-0.1,0-0.2,0c-0.8,0-1.5-0.7-1.5-1.5c0,0,0,0,0-0.1
		c0-0.8,0.7-1.5,1.5-1.5c0.1,0,0.1,0,0.2,0c0.8,0,1.5,0.7,1.5,1.5C399.5,277.6,399.5,277.7,399.5,277.7z M399.2,283.6v12.9
		c0,0.8-0.6,1.4-1.4,1.4c-0.8,0-1.4-0.6-1.4-1.4v-12.9c0-0.8,0.6-1.4,1.4-1.4C398.6,282.2,399.2,282.8,399.2,283.6z"/>
	<path class="st3" d="M416.8,283.6c0,0.2-0.1,0.4-0.2,0.6l-5.2,12.5c-0.3,0.6-0.9,1.1-1.6,1.1h-0.3c-0.8,0-1.4-0.5-1.6-1.1
		l-5.2-12.5c-0.1-0.2-0.2-0.4-0.2-0.6c0-0.8,0.6-1.4,1.4-1.4c0.5,0,1,0.3,1.2,0.8l4.6,11.6l4.6-11.6c0.2-0.5,0.7-0.8,1.2-0.8
		C416.2,282.2,416.8,282.9,416.8,283.6z"/>
	<path class="st3" d="M432.7,295.5c0,0.5-0.4,0.9-0.8,1.1c-1.3,0.8-2.6,1.3-5.2,1.3c-4.9,0-7.8-2.9-7.8-7.9c0-4,2.2-8,7.2-8
		c4.6,0,7.1,3.6,7.1,7.6c0,0.8-0.5,1.4-1.4,1.4h-10.2c0.3,2.7,2,4.4,5.2,4.4c1.8,0,2.9-0.4,4-0.9c0.2-0.1,0.3-0.1,0.5-0.1
		C432.1,294.4,432.7,294.9,432.7,295.5z M421.6,288.8h8.8c-0.2-3.1-2.5-4.4-4.4-4.4S421.8,285.6,421.6,288.8z"/>
</g>
<rect x="578.9" y="222.7" class="st1" width="185.8" height="109.7"/>
<g class="st2">
	<path class="st3" d="M635.6,243.3v6.6h9.2c0.7,0,1.3,0.6,1.3,1.3s-0.6,1.3-1.3,1.3h-9.2v8c0,0.8-0.6,1.4-1.4,1.4s-1.4-0.6-1.4-1.4
		v-18.4c0-0.8,0.6-1.4,1.4-1.4h11.7c0.7,0,1.3,0.6,1.3,1.3s-0.6,1.3-1.3,1.3H635.6z"/>
	<path class="st3" d="M658.7,247.4c0,0.8-0.6,1.3-1.4,1.3h-0.1c-2,0-3.6,1.1-4.6,2.6v9.1c0,0.8-0.6,1.4-1.4,1.4s-1.3-0.6-1.3-1.4
		v-12.9c0-0.8,0.6-1.4,1.3-1.4s1.4,0.6,1.4,1.4v1.3c1.1-1.4,2.6-2.8,4.7-2.8h0.1C658.1,246.1,658.7,246.7,658.7,247.4z"/>
	<path class="st3" d="M673.4,252v8.5c0,0.8-0.6,1.4-1.4,1.4s-1.4-0.6-1.4-1.4v-0.8c-1.1,1.1-2.8,2.3-5.6,2.3c-2.6,0-4.9-1.7-4.9-4.5
		c0-2.8,2.2-4.9,6.9-4.9h3.6v-0.2c0-2.7-1.3-3.7-4-3.7c-1.7,0-2.9,0.4-4,0.7c-0.1,0-0.3,0.1-0.4,0.1c-0.6,0-1.1-0.5-1.1-1.1
		c0-0.5,0.3-0.9,0.8-1.1c1.4-0.6,3.1-1.1,5.2-1.1C671.5,246.1,673.4,249,673.4,252z M670.7,257.3v-2.5h-3.3c-2.8,0-4.5,0.7-4.5,2.4
		c0,1.3,0.8,2.4,3.2,2.4C667.9,259.6,669.7,258.5,670.7,257.3z"/>
	<path class="st3" d="M677.8,256.1v-8.5c0-0.8,0.6-1.3,1.4-1.3s1.4,0.6,1.4,1.3v8.2c0,2.3,1,3.7,3.3,3.7c2.2,0,3.7-1.4,4.9-2.9v-9
		c0-0.8,0.6-1.3,1.4-1.3s1.3,0.6,1.3,1.3v12.9c0,0.8-0.6,1.4-1.3,1.4s-1.4-0.6-1.4-1.4v-1.2c-1.3,1.4-2.9,2.8-5.6,2.8
		C679.8,262,677.8,259.3,677.8,256.1z"/>
	<path class="st3" d="M707.7,248.4V241c0-0.8,0.6-1.4,1.4-1.4c0.8,0,1.3,0.6,1.3,1.4v19.5c0,0.8-0.6,1.4-1.3,1.4
		c-0.8,0-1.4-0.6-1.4-1.4v-0.8c-1.4,1.4-3,2.3-5.1,2.3c-3.6,0-7.3-2.8-7.3-7.9s3.6-8,7.3-8C704.7,246.1,706.3,246.9,707.7,248.4z
		 M707.7,257.2v-6.3c-1.2-1.3-2.8-2.2-4.7-2.2c-2.9,0-4.9,1.9-4.9,5.4s2.1,5.4,4.9,5.4C704.9,259.4,706.5,258.5,707.7,257.2z"/>
</g>
<g class="st2">
	<path class="st3" d="M617.3,296.5c0,0.8-0.6,1.4-1.3,1.4c-0.8,0-1.4-0.5-1.4-1.4v-0.9c0-2-0.1-6.1-4.6-6.1h-6.2v7
		c0,0.8-0.6,1.4-1.4,1.4s-1.4-0.6-1.4-1.4v-18.4c0-0.8,0.6-1.4,1.4-1.4h7c5.7,0,8.2,2.6,8.2,6.1c0,2.3-1.3,4.5-3.9,5.4
		c3.3,0.9,3.7,5.2,3.7,6.8V296.5z M614.7,283c0-2.2-1.3-3.7-5.8-3.7h-5.3v7.6h5.4C612.5,286.9,614.7,285.6,614.7,283z"/>
	<path class="st3" d="M634.7,295.5c0,0.5-0.4,0.9-0.8,1.1c-1.3,0.8-2.6,1.3-5.2,1.3c-4.9,0-7.8-2.9-7.8-7.9c0-4,2.2-8,7.2-8
		c4.6,0,7.1,3.6,7.1,7.6c0,0.8-0.5,1.4-1.4,1.4h-10.2c0.3,2.7,2,4.4,5.2,4.4c1.8,0,2.9-0.4,4-0.9c0.2-0.1,0.3-0.1,0.5-0.1
		C634.1,294.4,634.7,294.9,634.7,295.5z M623.6,288.8h8.8c-0.2-3.1-2.5-4.4-4.4-4.4S623.8,285.6,623.6,288.8z"/>
	<path class="st3" d="M650.3,284.4V277c0-0.8,0.6-1.4,1.4-1.4c0.8,0,1.3,0.6,1.3,1.4v19.5c0,0.8-0.6,1.4-1.3,1.4
		c-0.8,0-1.4-0.6-1.4-1.4v-0.8c-1.4,1.4-3,2.3-5.1,2.3c-3.6,0-7.3-2.8-7.3-7.9s3.6-8,7.3-8C647.3,282.1,648.9,282.9,650.3,284.4z
		 M650.3,293.2v-6.3c-1.2-1.3-2.8-2.2-4.7-2.2c-2.9,0-4.9,1.9-4.9,5.4s2.1,5.4,4.9,5.4C647.5,295.4,649.2,294.5,650.3,293.2z"/>
	<path class="st3" d="M657.7,292.1v-8.5c0-0.8,0.6-1.3,1.4-1.3s1.4,0.6,1.4,1.3v8.2c0,2.3,1,3.7,3.3,3.7c2.2,0,3.7-1.4,4.9-2.9v-9
		c0-0.8,0.6-1.3,1.4-1.3s1.3,0.6,1.3,1.3v12.9c0,0.8-0.6,1.4-1.3,1.4s-1.4-0.6-1.4-1.4v-1.2c-1.3,1.4-2.9,2.8-5.6,2.8
		C659.6,298,657.7,295.3,657.7,292.1z"/>
	<path class="st3" d="M688.6,295.5c0,0.4-0.2,0.8-0.6,1c-1,0.7-2.5,1.4-4.9,1.4c-4.3,0-8-2.9-8-7.9s3.8-8,8-8c2.4,0,3.9,0.8,4.9,1.4
		c0.4,0.2,0.6,0.6,0.6,1c0,0.6-0.5,1.2-1.1,1.2c-0.2,0-0.4,0-0.7-0.2c-1.1-0.5-1.9-1-3.5-1c-3.5,0-5.5,2.2-5.5,5.4s2,5.4,5.5,5.4
		c1.6,0,2.4-0.4,3.5-1c0.3-0.1,0.4-0.2,0.7-0.2C688.1,294.3,688.6,294.9,688.6,295.5z"/>
	<path class="st3" d="M700.7,296.4c0,0.5-0.3,0.8-0.7,1c-0.7,0.3-1.5,0.5-2.5,0.5c-1.4,0-4.4-0.2-4.4-4v-9.3H691
		c-0.3,0-0.6-0.2-0.6-0.6c0-0.2,0.1-0.4,0.3-0.5l4.1-4c0.1-0.1,0.3-0.3,0.5-0.3c0.3,0,0.6,0.3,0.6,0.6v2.4h3.4
		c0.7,0,1.2,0.5,1.2,1.2c0,0.7-0.5,1.2-1.2,1.2h-3.4v9.1c0,1.8,1.2,1.8,1.9,1.8c1,0,1.3-0.3,1.8-0.3
		C700.2,295.3,700.7,295.8,700.7,296.4z"/>
	<path class="st3" d="M706.8,277.7c0,0.8-0.7,1.5-1.5,1.5c0,0-0.1,0-0.2,0c-0.8,0-1.5-0.7-1.5-1.5c0,0,0,0,0-0.1
		c0-0.8,0.7-1.5,1.5-1.5c0.1,0,0.1,0,0.2,0c0.8,0,1.5,0.7,1.5,1.5C706.8,277.6,706.8,277.7,706.8,277.7z M706.5,283.6v12.9
		c0,0.8-0.6,1.4-1.4,1.4c-0.8,0-1.4-0.6-1.4-1.4v-12.9c0-0.8,0.6-1.4,1.4-1.4C705.9,282.2,706.5,282.8,706.5,283.6z"/>
	<path class="st3" d="M725.8,290c0,4.7-3.1,7.9-7.7,7.9c-4.6,0-7.7-3.2-7.7-7.9c0-4.7,3-8,7.7-8C722.8,282.1,725.8,285.3,725.8,290z
		 M723.1,290c0-4-2.7-5.4-4.9-5.4c-2.3,0-4.9,1.5-4.9,5.4c0,4,2.6,5.5,4.9,5.5C720.4,295.5,723.1,294,723.1,290z"/>
	<path class="st3" d="M743.3,288v8.5c0,0.8-0.6,1.4-1.4,1.4s-1.4-0.6-1.4-1.4v-8.2c0-2.3-1-3.7-3.3-3.7c-2.2,0-3.7,1.4-4.9,2.9v9
		c0,0.8-0.6,1.4-1.4,1.4s-1.3-0.6-1.3-1.4v-12.9c0-0.8,0.6-1.4,1.3-1.4s1.4,0.6,1.4,1.4v1.2c1.3-1.4,2.9-2.8,5.6-2.8
		C741.4,282.1,743.3,284.7,743.3,288z"/>
</g>
<rect x="867.6" y="222.7" class="st1" width="185.8" height="109.7"/>
<g class="st2">
	<path class="st3" d="M910.1,260.5c0,0.8-0.6,1.4-1.3,1.4c-0.8,0-1.4-0.5-1.4-1.4v-0.9c0-2-0.1-6.1-4.6-6.1h-6.2v7
		c0,0.8-0.6,1.4-1.4,1.4s-1.4-0.6-1.4-1.4v-18.4c0-0.8,0.6-1.4,1.4-1.4h7c5.7,0,8.2,2.6,8.2,6.1c0,2.3-1.3,4.5-3.9,5.4
		c3.3,0.9,3.7,5.2,3.7,6.8V260.5z M907.5,247c0-2.2-1.3-3.7-5.8-3.7h-5.3v7.6h5.4C905.3,250.9,907.5,249.6,907.5,247z"/>
	<path class="st3" d="M927.5,259.5c0,0.5-0.4,0.9-0.8,1.1c-1.3,0.8-2.6,1.3-5.2,1.3c-4.9,0-7.8-2.9-7.8-7.9c0-4,2.2-8,7.2-8
		c4.6,0,7.1,3.6,7.1,7.6c0,0.8-0.5,1.4-1.4,1.4h-10.2c0.3,2.7,2,4.4,5.2,4.4c1.8,0,2.9-0.4,4-0.9c0.2-0.1,0.3-0.1,0.5-0.1
		C926.9,258.4,927.5,258.9,927.5,259.5z M916.4,252.8h8.8c-0.2-3.1-2.5-4.4-4.4-4.4S916.6,249.6,916.4,252.8z"/>
	<path class="st3" d="M943.7,252v8.5c0,0.8-0.6,1.4-1.4,1.4s-1.4-0.6-1.4-1.4v-0.8c-1.1,1.1-2.8,2.3-5.6,2.3c-2.6,0-4.9-1.7-4.9-4.5
		c0-2.8,2.2-4.9,6.9-4.9h3.6v-0.2c0-2.7-1.3-3.7-4-3.7c-1.7,0-2.9,0.4-4,0.7c-0.1,0-0.3,0.1-0.4,0.1c-0.6,0-1.1-0.5-1.1-1.1
		c0-0.5,0.3-0.9,0.8-1.1c1.4-0.6,3.1-1.1,5.2-1.1C941.8,246.1,943.7,249,943.7,252z M941,257.3v-2.5h-3.3c-2.8,0-4.5,0.7-4.5,2.4
		c0,1.3,0.8,2.4,3.2,2.4C938.2,259.6,940,258.5,941,257.3z"/>
	<path class="st3" d="M951.3,241v19.5c0,0.8-0.6,1.4-1.4,1.4c-0.8,0-1.4-0.6-1.4-1.4V241c0-0.8,0.6-1.4,1.4-1.4
		C950.7,239.6,951.3,240.2,951.3,241z"/>
	<path class="st3" d="M964.1,253.3c0,0.7-0.5,1.2-1.2,1.2h-5.7c-0.7,0-1.2-0.5-1.2-1.2c0-0.7,0.5-1.2,1.2-1.2h5.7
		C963.5,252,964.1,252.6,964.1,253.3z"/>
	<path class="st3" d="M976.7,260.4c0,0.5-0.3,0.8-0.7,1c-0.7,0.3-1.5,0.5-2.5,0.5c-1.4,0-4.4-0.2-4.4-4v-9.3H967
		c-0.3,0-0.6-0.2-0.6-0.6c0-0.2,0.1-0.4,0.3-0.5l4.1-4c0.1-0.1,0.3-0.3,0.5-0.3c0.3,0,0.6,0.3,0.6,0.6v2.4h3.4
		c0.7,0,1.2,0.5,1.2,1.2c0,0.7-0.5,1.2-1.2,1.2h-3.4v9.1c0,1.8,1.2,1.8,1.9,1.8c1,0,1.3-0.3,1.8-0.3
		C976.2,259.3,976.7,259.8,976.7,260.4z"/>
	<path class="st3" d="M982.8,241.7c0,0.8-0.7,1.5-1.5,1.5c0,0-0.1,0-0.2,0c-0.8,0-1.5-0.7-1.5-1.5c0,0,0,0,0-0.1
		c0-0.8,0.7-1.5,1.5-1.5c0.1,0,0.1,0,0.2,0c0.8,0,1.5,0.7,1.5,1.5C982.8,241.6,982.8,241.7,982.8,241.7z M982.5,247.6v12.9
		c0,0.8-0.6,1.4-1.4,1.4c-0.8,0-1.3-0.6-1.3-1.4v-12.9c0-0.8,0.6-1.4,1.3-1.4C981.9,246.2,982.5,246.8,982.5,247.6z"/>
	<path class="st3" d="M1010.3,251.8v8.6c0,0.8-0.6,1.4-1.4,1.4s-1.3-0.6-1.3-1.4v-8.1c0-2.5-0.8-3.8-3.1-3.8c-2.3,0-3.5,1.5-4.3,2.9
		v9c0,0.8-0.6,1.4-1.4,1.4s-1.3-0.6-1.3-1.4v-8.1c0-2.5-0.8-3.8-3.1-3.8c-2.3,0-3.5,1.5-4.3,2.9v9c0,0.8-0.6,1.4-1.4,1.4
		s-1.3-0.6-1.3-1.4v-12.9c0-0.8,0.6-1.4,1.3-1.4s1.4,0.6,1.4,1.4v1.2c0.8-1.2,2.2-2.8,5.1-2.8c2.4,0,4,1.5,4.6,3.1
		c0.7-1.1,2.2-3.1,5.5-3.1C1008.9,246.1,1010.3,249.2,1010.3,251.8z"/>
	<path class="st3" d="M1027.9,259.5c0,0.5-0.4,0.9-0.8,1.1c-1.3,0.8-2.6,1.3-5.2,1.3c-4.9,0-7.8-2.9-7.8-7.9c0-4,2.2-8,7.2-8
		c4.6,0,7.1,3.6,7.1,7.6c0,0.8-0.5,1.4-1.4,1.4h-10.2c0.3,2.7,2,4.4,5.2,4.4c1.8,0,2.9-0.4,4-0.9c0.2-0.1,0.3-0.1,0.5-0.1
		C1027.3,258.4,1027.9,258.9,1027.9,259.5z M1016.8,252.8h8.8c-0.2-3.1-2.5-4.4-4.4-4.4S1017,249.6,1016.8,252.8z"/>
</g>
<g class="st2">
	<path class="st3" d="M907.9,296.5c0,0.8-0.6,1.4-1.3,1.4c-0.8,0-1.4-0.5-1.4-1.4v-0.9c0-2-0.1-6.1-4.7-6.1h-6.2v7
		c0,0.8-0.6,1.4-1.4,1.4s-1.3-0.6-1.3-1.4v-18.4c0-0.8,0.6-1.4,1.3-1.4h7c5.7,0,8.2,2.6,8.2,6.1c0,2.3-1.3,4.5-3.9,5.4
		c3.3,0.9,3.8,5.2,3.8,6.8V296.5z M905.3,283c0-2.2-1.3-3.7-5.8-3.7h-5.3v7.6h5.4C903.1,286.9,905.3,285.6,905.3,283z"/>
	<path class="st3" d="M925.3,295.5c0,0.5-0.4,0.9-0.8,1.1c-1.3,0.8-2.6,1.3-5.2,1.3c-4.9,0-7.8-2.9-7.8-7.9c0-4,2.2-8,7.2-8
		c4.6,0,7.1,3.6,7.1,7.6c0,0.8-0.5,1.4-1.4,1.4h-10.2c0.3,2.7,2,4.4,5.2,4.4c1.8,0,2.9-0.4,4-0.9c0.2-0.1,0.3-0.1,0.5-0.1
		C924.7,294.4,925.3,294.9,925.3,295.5z M914.2,288.8h8.8c-0.2-3.1-2.5-4.4-4.4-4.4S914.4,285.6,914.2,288.8z"/>
	<path class="st3" d="M932.2,295.7v7.6c0,0.8-0.6,1.4-1.4,1.4c-0.8,0-1.3-0.6-1.3-1.4v-19.8c0-0.8,0.6-1.3,1.3-1.3
		c0.8,0,1.4,0.6,1.4,1.3v0.8c1.4-1.4,3-2.3,5.1-2.3c3.6,0,7.3,2.9,7.3,8s-3.6,7.9-7.3,7.9C935.2,298,933.6,297.1,932.2,295.7z
		 M932.2,286.9v6.3c1.2,1.3,2.8,2.2,4.7,2.2c2.9,0,4.9-1.9,4.9-5.4s-2.1-5.4-4.9-5.4C935,284.6,933.4,285.6,932.2,286.9z"/>
	<path class="st3" d="M962.8,290c0,4.7-3.1,7.9-7.7,7.9c-4.6,0-7.7-3.2-7.7-7.9c0-4.7,3-8,7.7-8C959.8,282.1,962.8,285.3,962.8,290z
		 M960.1,290c0-4-2.7-5.4-5-5.4c-2.3,0-4.9,1.5-4.9,5.4c0,4,2.6,5.5,4.9,5.5C957.4,295.5,960.1,294,960.1,290z"/>
	<path class="st3" d="M975.6,283.4c0,0.8-0.6,1.3-1.4,1.3H974c-2,0-3.6,1.1-4.7,2.6v9.1c0,0.8-0.6,1.4-1.4,1.4s-1.3-0.6-1.3-1.4
		v-12.9c0-0.8,0.6-1.4,1.3-1.4s1.4,0.6,1.4,1.4v1.3c1.1-1.4,2.6-2.8,4.7-2.8h0.2C975,282.1,975.6,282.7,975.6,283.4z"/>
	<path class="st3" d="M986.8,296.4c0,0.5-0.3,0.8-0.7,1c-0.7,0.3-1.5,0.5-2.5,0.5c-1.4,0-4.4-0.2-4.4-4v-9.3h-2.1
		c-0.3,0-0.6-0.2-0.6-0.6c0-0.2,0.1-0.4,0.3-0.5l4.1-4c0.1-0.1,0.3-0.3,0.5-0.3c0.3,0,0.6,0.3,0.6,0.6v2.4h3.4
		c0.7,0,1.2,0.5,1.2,1.2c0,0.7-0.5,1.2-1.2,1.2H982v9.1c0,1.8,1.2,1.8,1.9,1.8c1,0,1.3-0.3,1.8-0.3
		C986.3,295.3,986.8,295.8,986.8,296.4z"/>
	<path class="st3" d="M992.9,277.7c0,0.8-0.7,1.5-1.5,1.5c0,0-0.1,0-0.2,0c-0.8,0-1.5-0.7-1.5-1.5c0,0,0,0,0-0.1
		c0-0.8,0.7-1.5,1.5-1.5c0.1,0,0.1,0,0.2,0c0.8,0,1.5,0.7,1.5,1.5C992.9,277.6,992.9,277.7,992.9,277.7z M992.6,283.6v12.9
		c0,0.8-0.6,1.4-1.4,1.4c-0.8,0-1.4-0.6-1.4-1.4v-12.9c0-0.8,0.6-1.4,1.4-1.4C992,282.2,992.6,282.8,992.6,283.6z"/>
	<path class="st3" d="M1011.2,288v8.5c0,0.8-0.6,1.4-1.4,1.4s-1.3-0.6-1.3-1.4v-8.2c0-2.3-1-3.7-3.3-3.7c-2.2,0-3.7,1.4-4.9,2.9v9
		c0,0.8-0.6,1.4-1.4,1.4s-1.3-0.6-1.3-1.4v-12.9c0-0.8,0.6-1.4,1.3-1.4s1.4,0.6,1.4,1.4v1.2c1.3-1.4,2.9-2.8,5.6-2.8
		C1009.2,282.1,1011.2,284.7,1011.2,288z"/>
	<path class="st3" d="M1029.9,283.6V297c0,5-2.5,7.9-7,7.9c-2.4,0-5-0.7-6.4-1.6c-0.3-0.2-0.5-0.5-0.5-1c0-0.6,0.5-1.2,1.2-1.2
		c0.2,0,0.4,0.1,0.5,0.1c1.3,0.6,2.9,1.1,4.9,1.1c3.1,0,4.6-1.7,4.6-4.9v-2c-1.2,1.3-2.9,2.3-5.1,2.3c-3.3,0-7.3-2.5-7.3-7.8
		s3.9-7.8,7.3-7.8c2.2,0,3.9,1,5.1,2.3v-0.8c0-0.8,0.6-1.4,1.3-1.4S1029.9,282.9,1029.9,283.6z M1027.2,286.8
		c-1.1-1.1-2.5-2.2-4.6-2.2c-2.8,0-5.1,1.7-5.1,5.3s2.2,5.3,5.1,5.3c2.1,0,3.4-1.1,4.6-2.2V286.8z"/>
</g>
<rect x="1156.2" y="222.7" class="st1" width="185.8" height="109.7"/>
<g class="st2">
	<path class="st3" d="M1191.4,251.2c-0.1,6.3-4.1,10.8-10.5,10.8c-6.4,0-10.4-4.5-10.5-10.8c0.1-6.3,4.1-10.8,10.5-10.8
		C1187.3,240.4,1191.3,244.9,1191.4,251.2z M1188.7,251.2c0-4.6-2.8-8.2-7.8-8.2c-5,0-7.8,3.6-7.8,8.2s2.8,8.2,7.8,8.2
		C1185.8,259.4,1188.7,255.8,1188.7,251.2z"/>
	<path class="st3" d="M1207.7,259.5c0,0.4-0.2,0.8-0.6,1c-1,0.7-2.5,1.4-4.9,1.4c-4.3,0-8-2.9-8-7.9s3.8-8,8-8
		c2.4,0,3.9,0.8,4.9,1.4c0.4,0.2,0.6,0.6,0.6,1c0,0.6-0.5,1.2-1.1,1.2c-0.2,0-0.4,0-0.7-0.2c-1-0.5-1.9-1-3.5-1
		c-3.5,0-5.5,2.2-5.5,5.4s2,5.4,5.5,5.4c1.6,0,2.4-0.4,3.5-1c0.3-0.1,0.4-0.2,0.7-0.2C1207.2,258.3,1207.7,258.9,1207.7,259.5z"/>
	<path class="st3" d="M1223.7,259.5c0,0.4-0.2,0.8-0.6,1c-1,0.7-2.5,1.4-4.9,1.4c-4.3,0-8-2.9-8-7.9s3.8-8,8-8
		c2.4,0,3.9,0.8,4.9,1.4c0.4,0.2,0.6,0.6,0.6,1c0,0.6-0.5,1.2-1.1,1.2c-0.2,0-0.4,0-0.7-0.2c-1.1-0.5-1.9-1-3.5-1
		c-3.5,0-5.5,2.2-5.5,5.4s2,5.4,5.5,5.4c1.6,0,2.4-0.4,3.5-1c0.3-0.1,0.4-0.2,0.7-0.2C1223.2,258.3,1223.7,258.9,1223.7,259.5z"/>
	<path class="st3" d="M1227.2,256.1v-8.5c0-0.8,0.6-1.3,1.4-1.3s1.4,0.6,1.4,1.3v8.2c0,2.3,1,3.7,3.3,3.7c2.2,0,3.7-1.4,4.9-2.9v-9
		c0-0.8,0.6-1.3,1.4-1.3s1.3,0.6,1.3,1.3v12.9c0,0.8-0.6,1.4-1.3,1.4s-1.4-0.6-1.4-1.4v-1.2c-1.3,1.4-2.9,2.8-5.6,2.8
		C1229.1,262,1227.2,259.3,1227.2,256.1z"/>
	<path class="st3" d="M1248.3,259.7v7.6c0,0.8-0.6,1.4-1.4,1.4c-0.8,0-1.3-0.6-1.3-1.4v-19.8c0-0.8,0.6-1.3,1.3-1.3
		c0.8,0,1.4,0.6,1.4,1.3v0.8c1.4-1.4,3-2.3,5.1-2.3c3.6,0,7.3,2.9,7.3,8s-3.6,7.9-7.3,7.9C1251.3,262,1249.7,261.1,1248.3,259.7z
		 M1248.3,250.9v6.3c1.2,1.3,2.8,2.2,4.7,2.2c2.8,0,4.9-1.9,4.9-5.4s-2.1-5.4-4.9-5.4C1251.1,248.6,1249.5,249.6,1248.3,250.9z"/>
	<path class="st3" d="M1276.5,252v8.5c0,0.8-0.6,1.4-1.4,1.4s-1.4-0.6-1.4-1.4v-0.8c-1.1,1.1-2.8,2.3-5.6,2.3
		c-2.6,0-4.9-1.7-4.9-4.5c0-2.8,2.2-4.9,6.9-4.9h3.6v-0.2c0-2.7-1.3-3.7-4-3.7c-1.7,0-2.9,0.4-4,0.7c-0.1,0-0.3,0.1-0.4,0.1
		c-0.6,0-1.1-0.5-1.1-1.1c0-0.5,0.3-0.9,0.8-1.1c1.4-0.6,3.1-1.1,5.2-1.1C1274.6,246.1,1276.5,249,1276.5,252z M1273.8,257.3v-2.5
		h-3.3c-2.8,0-4.5,0.7-4.5,2.4c0,1.3,0.8,2.4,3.2,2.4C1271,259.6,1272.8,258.5,1273.8,257.3z"/>
	<path class="st3" d="M1294.8,252v8.5c0,0.8-0.6,1.4-1.4,1.4s-1.3-0.6-1.3-1.4v-8.2c0-2.3-1-3.7-3.3-3.7c-2.2,0-3.7,1.4-4.9,2.9v9
		c0,0.8-0.6,1.4-1.4,1.4s-1.3-0.6-1.3-1.4v-12.9c0-0.8,0.6-1.4,1.3-1.4s1.4,0.6,1.4,1.4v1.2c1.3-1.4,2.9-2.8,5.6-2.8
		C1292.9,246.1,1294.8,248.7,1294.8,252z"/>
	<path class="st3" d="M1311.9,259.5c0,0.4-0.2,0.8-0.6,1c-1,0.7-2.5,1.4-4.9,1.4c-4.3,0-8-2.9-8-7.9s3.8-8,8-8
		c2.4,0,3.9,0.8,4.9,1.4c0.4,0.2,0.6,0.6,0.6,1c0,0.6-0.5,1.2-1.1,1.2c-0.2,0-0.4,0-0.7-0.2c-1-0.5-1.9-1-3.4-1
		c-3.5,0-5.5,2.2-5.5,5.4s2,5.4,5.5,5.4c1.6,0,2.4-0.4,3.4-1c0.3-0.1,0.4-0.2,0.7-0.2C1311.4,258.3,1311.9,258.9,1311.9,259.5z"/>
	<path class="st3" d="M1328.3,248.1l-8.2,19.7c-0.2,0.5-0.6,0.9-1.3,0.9c-0.7,0-1.3-0.6-1.3-1.3c0-0.1,0-0.3,0.1-0.5l2-5l-5.6-13.7
		c-0.1-0.2-0.1-0.4-0.1-0.6c0-0.8,0.6-1.4,1.3-1.4c0.6,0,1,0.4,1.3,0.8l4.6,11.5l4.7-11.4c0.2-0.5,0.7-0.9,1.3-0.9
		c0.8,0,1.3,0.6,1.3,1.4C1328.4,247.8,1328.4,248,1328.3,248.1z"/>
</g>
<g class="st2">
	<path class="st3" d="M1215.4,295c0,0.6-0.3,0.9-0.7,1.1c-1.9,1-3.9,1.9-6.8,1.9c-6,0-10.5-4.1-10.5-10.8s4.5-10.8,10.5-10.8
		c2.9,0,5,0.8,6.8,1.9c0.4,0.2,0.6,0.5,0.7,1.1c0,0.6-0.5,1.2-1.2,1.2c-0.2,0-0.4,0-0.5-0.1c-1.6-0.8-3.2-1.4-5.5-1.4
		c-5.3,0-8,3.5-8,8.2s2.7,8.2,8,8.2c2.3,0,3.9-0.6,5.5-1.4c0.2-0.1,0.4-0.1,0.5-0.1C1214.9,293.8,1215.4,294.4,1215.4,295z"/>
	<path class="st3" d="M1233,290c0,4.7-3.1,7.9-7.7,7.9c-4.7,0-7.7-3.2-7.7-7.9c0-4.7,3-8,7.7-8C1229.9,282.1,1233,285.3,1233,290z
		 M1230.2,290c0-4-2.7-5.4-4.9-5.4c-2.3,0-5,1.5-5,5.4c0,4,2.6,5.5,5,5.5C1227.6,295.5,1230.2,294,1230.2,290z"/>
	<path class="st3" d="M1250.5,288v8.5c0,0.8-0.6,1.4-1.4,1.4s-1.3-0.6-1.3-1.4v-8.2c0-2.3-1-3.7-3.3-3.7c-2.2,0-3.7,1.4-4.9,2.9v9
		c0,0.8-0.6,1.4-1.4,1.4s-1.3-0.6-1.3-1.4v-12.9c0-0.8,0.6-1.4,1.3-1.4s1.4,0.6,1.4,1.4v1.2c1.3-1.4,2.9-2.8,5.6-2.8
		C1248.5,282.1,1250.5,284.7,1250.5,288z"/>
	<path class="st3" d="M1263.5,296.4c0,0.5-0.3,0.8-0.7,1c-0.7,0.3-1.5,0.5-2.5,0.5c-1.4,0-4.4-0.2-4.4-4v-9.3h-2.1
		c-0.3,0-0.6-0.2-0.6-0.6c0-0.2,0.1-0.4,0.3-0.5l4.1-4c0.1-0.1,0.3-0.3,0.5-0.3c0.3,0,0.6,0.3,0.6,0.6v2.4h3.4
		c0.7,0,1.2,0.5,1.2,1.2c0,0.7-0.5,1.2-1.2,1.2h-3.4v9.1c0,1.8,1.2,1.8,1.9,1.8c1,0,1.3-0.3,1.8-0.3
		C1262.9,295.3,1263.5,295.8,1263.5,296.4z"/>
	<path class="st3" d="M1275.4,283.4c0,0.8-0.6,1.3-1.4,1.3h-0.1c-2,0-3.6,1.1-4.7,2.6v9.1c0,0.8-0.6,1.4-1.4,1.4s-1.3-0.6-1.3-1.4
		v-12.9c0-0.8,0.6-1.4,1.3-1.4s1.4,0.6,1.4,1.4v1.3c1.1-1.4,2.6-2.8,4.7-2.8h0.1C1274.8,282.1,1275.4,282.7,1275.4,283.4z"/>
	<path class="st3" d="M1292.5,290c0,4.7-3.1,7.9-7.7,7.9c-4.6,0-7.7-3.2-7.7-7.9c0-4.7,3-8,7.7-8
		C1289.4,282.1,1292.5,285.3,1292.5,290z M1289.8,290c0-4-2.7-5.4-5-5.4c-2.3,0-5,1.5-5,5.4c0,4,2.6,5.5,5,5.5
		C1287.1,295.5,1289.8,294,1289.8,290z"/>
	<path class="st3" d="M1299.3,277v19.5c0,0.8-0.6,1.4-1.4,1.4c-0.8,0-1.4-0.6-1.4-1.4V277c0-0.8,0.6-1.4,1.4-1.4
		C1298.7,275.6,1299.3,276.2,1299.3,277z"/>
</g>
<rect x="1444.8" y="222.7" class="st1" width="185.8" height="109.7"/>
<g class="st2">
	<path class="st3" d="M1521.6,260.4c0,0.7-0.6,1.3-1.3,1.3h-12c-0.8,0-1.4-0.6-1.4-1.3v-18.2c0-0.8,0.6-1.4,1.4-1.4h12
		c0.7,0,1.3,0.6,1.3,1.3s-0.6,1.3-1.3,1.3h-10.7v6.6h9.6c0.7,0,1.3,0.6,1.3,1.3s-0.6,1.3-1.3,1.3h-9.6v6.7h10.7
		C1521.1,259.1,1521.6,259.7,1521.6,260.4z"/>
	<path class="st3" d="M1537.4,252v8.5c0,0.8-0.6,1.4-1.4,1.4s-1.4-0.6-1.4-1.4v-0.8c-1.1,1.1-2.8,2.3-5.6,2.3
		c-2.6,0-4.9-1.7-4.9-4.5c0-2.8,2.2-4.9,6.9-4.9h3.6v-0.2c0-2.7-1.3-3.7-4-3.7c-1.7,0-2.9,0.4-4,0.7c-0.1,0-0.3,0.1-0.4,0.1
		c-0.6,0-1.1-0.5-1.1-1.1c0-0.5,0.3-0.9,0.8-1.1c1.4-0.6,3.1-1.1,5.2-1.1C1535.5,246.1,1537.4,249,1537.4,252z M1534.6,257.3v-2.5
		h-3.3c-2.8,0-4.5,0.7-4.5,2.4c0,1.3,0.8,2.4,3.2,2.4C1531.9,259.6,1533.6,258.5,1534.6,257.3z"/>
	<path class="st3" d="M1552.8,257.5c0,2.4-2,4.4-5.8,4.4c-2.2,0-3.9-0.5-5.5-1.3c-0.3-0.2-0.5-0.6-0.5-1c0-0.6,0.5-1.2,1.2-1.2
		c0.2,0,0.3,0,0.5,0.1c1.1,0.5,2.3,0.9,4.1,0.9c2.3,0,3.3-0.8,3.3-2.1c0-2.6-9-1-9-6.5c0-2.7,1.9-4.7,5.8-4.7c1.7,0,3.1,0.3,4.3,0.8
		c0.6,0.2,0.9,0.7,0.9,1.1c0,0.6-0.5,1.2-1.2,1.2c-0.1,0-0.3,0-0.4-0.1c-1-0.3-2.1-0.5-3.4-0.5c-2.2,0-3.5,0.9-3.5,2.1
		C1543.8,253.8,1552.8,251.7,1552.8,257.5z"/>
	<path class="st3" d="M1569.3,259.5c0,0.5-0.4,0.9-0.8,1.1c-1.3,0.8-2.6,1.3-5.2,1.3c-4.9,0-7.8-2.9-7.8-7.9c0-4,2.2-8,7.2-8
		c4.6,0,7.1,3.6,7.1,7.6c0,0.8-0.5,1.4-1.4,1.4h-10.2c0.3,2.7,2,4.4,5.2,4.4c1.8,0,2.9-0.4,4-0.9c0.2-0.1,0.3-0.1,0.5-0.1
		C1568.7,258.4,1569.3,258.9,1569.3,259.5z M1558.3,252.8h8.8c-0.2-3.1-2.5-4.4-4.4-4.4S1558.4,249.6,1558.3,252.8z"/>
</g>
<g class="st2">
	<path class="st3" d="M1508.6,290c0,4.7-3.1,7.9-7.7,7.9c-4.7,0-7.7-3.2-7.7-7.9c0-4.7,3-8,7.7-8
		C1505.6,282.1,1508.6,285.3,1508.6,290z M1505.9,290c0-4-2.7-5.4-4.9-5.4c-2.3,0-5,1.5-5,5.4c0,4,2.6,5.5,5,5.5
		C1503.2,295.5,1505.9,294,1505.9,290z"/>
	<path class="st3" d="M1516.2,280.7v1.6h3.8c0.7,0,1.2,0.5,1.2,1.2c0,0.7-0.5,1.2-1.2,1.2h-3.8v11.8c0,0.8-0.6,1.4-1.4,1.4
		c-0.8,0-1.4-0.6-1.4-1.4v-11.8h-1.8c-0.7,0-1.2-0.5-1.2-1.2c0-0.7,0.5-1.2,1.2-1.2h1.8v-1.7c0-3.8,2.4-5.2,4.5-5.2
		c1,0,1.9,0.2,2.6,0.6c0.4,0.2,0.7,0.6,0.7,1.1c0,0.6-0.5,1.1-1.1,1.1c-0.5,0-0.9-0.2-1.5-0.2
		C1517.1,278.1,1516.2,278.6,1516.2,280.7z"/>
	<path class="st3" d="M1549.1,278v11.8c0,5.6-4.6,8.2-8.6,8.2s-8.6-2.5-8.6-8.2V278c0-0.8,0.6-1.4,1.3-1.4s1.4,0.6,1.4,1.4v11.9
		c0,3.8,2.9,5.6,5.9,5.6c2.9,0,5.9-1.8,5.9-5.6V278c0-0.8,0.6-1.4,1.3-1.4S1549.1,277.2,1549.1,278z"/>
	<path class="st3" d="M1564.6,293.5c0,2.4-1.9,4.4-5.8,4.4c-2.2,0-3.9-0.5-5.5-1.3c-0.3-0.2-0.5-0.6-0.5-1c0-0.6,0.5-1.2,1.2-1.2
		c0.2,0,0.3,0,0.5,0.1c1.1,0.5,2.3,0.9,4.1,0.9c2.3,0,3.3-0.8,3.3-2.1c0-2.6-9-1-9-6.5c0-2.7,1.9-4.7,5.8-4.7c1.6,0,3.1,0.3,4.3,0.8
		c0.6,0.2,0.9,0.7,0.9,1.1c0,0.6-0.5,1.2-1.2,1.2c-0.2,0-0.3,0-0.4-0.1c-1-0.3-2.1-0.5-3.4-0.5c-2.2,0-3.5,0.9-3.5,2.1
		C1555.6,289.8,1564.6,287.7,1564.6,293.5z"/>
	<path class="st3" d="M1581.1,295.5c0,0.5-0.4,0.9-0.8,1.1c-1.3,0.8-2.6,1.3-5.2,1.3c-4.9,0-7.8-2.9-7.8-7.9c0-4,2.2-8,7.2-8
		c4.6,0,7.1,3.6,7.1,7.6c0,0.8-0.5,1.4-1.4,1.4H1570c0.3,2.7,2,4.4,5.2,4.4c1.8,0,2.9-0.4,4-0.9c0.2-0.1,0.3-0.1,0.5-0.1
		C1580.5,294.4,1581.1,294.9,1581.1,295.5z M1570,288.8h8.8c-0.2-3.1-2.5-4.4-4.4-4.4S1570.2,285.6,1570,288.8z"/>
</g>
<rect x="290.3" y="553.5" class="st1" width="185.8" height="109.7"/>
<g class="st2">
	<path class="st3" d="M336.3,586.9c0,3.4-3,5.8-7.7,5.8c-3,0-5.4-0.7-7.1-1.4c-0.5-0.2-0.8-0.7-0.8-1.2c0-0.7,0.5-1.3,1.2-1.3
		c0.2,0,0.4,0,0.6,0.1c1.3,0.6,3.3,1.2,5.9,1.2c3,0,5.2-0.8,5.2-3.4c0-4.4-12.7-2-12.7-9.4c0-3.3,2.7-6.1,7.8-6.1c2.3,0,4.3,0.4,6,1
		c0.4,0.1,0.8,0.5,0.8,1.2c0,0.6-0.5,1.3-1.2,1.3c-0.1,0-0.3-0.1-0.5-0.1c-1.4-0.5-3-0.8-4.8-0.8c-3,0-5.3,1.2-5.3,3.4
		C323.6,582.4,336.3,579,336.3,586.9z"/>
	<path class="st3" d="M342.5,590.5v7.6c0,0.8-0.6,1.4-1.4,1.4c-0.8,0-1.3-0.6-1.3-1.4v-19.8c0-0.8,0.6-1.3,1.3-1.3
		c0.8,0,1.4,0.6,1.4,1.3v0.8c1.4-1.4,3-2.3,5.1-2.3c3.6,0,7.3,2.9,7.3,8s-3.6,7.9-7.3,7.9C345.5,592.8,343.9,591.9,342.5,590.5z
		 M342.5,581.7v6.3c1.2,1.3,2.8,2.2,4.7,2.2c2.8,0,4.9-1.9,4.9-5.4s-2.1-5.4-4.9-5.4C345.3,579.4,343.7,580.4,342.5,581.7z"/>
	<path class="st3" d="M371.6,590.3c0,0.5-0.4,0.9-0.8,1.1c-1.3,0.8-2.6,1.3-5.2,1.3c-4.9,0-7.8-2.9-7.8-7.9c0-4,2.2-8,7.2-8
		c4.6,0,7.1,3.6,7.1,7.6c0,0.8-0.5,1.4-1.4,1.4h-10.2c0.3,2.7,2,4.4,5.2,4.4c1.8,0,2.9-0.4,4-0.9c0.2-0.1,0.3-0.1,0.5-0.1
		C371,589.2,371.6,589.6,371.6,590.3z M360.6,583.6h8.8c-0.2-3.1-2.5-4.4-4.4-4.4S360.7,580.4,360.6,583.6z"/>
	<path class="st3" d="M388.7,590.3c0,0.5-0.4,0.9-0.8,1.1c-1.3,0.8-2.6,1.3-5.2,1.3c-4.9,0-7.8-2.9-7.8-7.9c0-4,2.2-8,7.2-8
		c4.6,0,7.1,3.6,7.1,7.6c0,0.8-0.5,1.4-1.4,1.4h-10.2c0.3,2.7,2,4.4,5.2,4.4c1.8,0,2.9-0.4,4-0.9c0.2-0.1,0.3-0.1,0.5-0.1
		C388.1,589.2,388.7,589.6,388.7,590.3z M377.7,583.6h8.8c-0.2-3.1-2.5-4.4-4.4-4.4S377.8,580.4,377.7,583.6z"/>
	<path class="st3" d="M404.4,579.1v-7.3c0-0.8,0.6-1.4,1.4-1.4c0.8,0,1.3,0.6,1.3,1.4v19.5c0,0.8-0.6,1.4-1.3,1.4
		c-0.8,0-1.4-0.6-1.4-1.4v-0.8c-1.4,1.4-3,2.3-5.1,2.3c-3.6,0-7.3-2.8-7.3-7.9s3.6-8,7.3-8C401.3,576.9,403,577.7,404.4,579.1z
		 M404.4,588v-6.3c-1.2-1.3-2.8-2.2-4.7-2.2c-2.9,0-4.9,1.9-4.9,5.4s2.1,5.4,4.9,5.4C401.6,590.2,403.2,589.3,404.4,588z"/>
	<path class="st3" d="M428.2,591.2c0,0.5-0.3,0.8-0.7,1c-0.7,0.3-1.5,0.5-2.5,0.5c-1.4,0-4.4-0.2-4.4-4v-9.3h-2.1
		c-0.3,0-0.6-0.2-0.6-0.6c0-0.2,0.1-0.4,0.3-0.5l4.1-4c0.1-0.1,0.3-0.3,0.5-0.3c0.3,0,0.6,0.3,0.6,0.6v2.4h3.4
		c0.7,0,1.2,0.5,1.2,1.2c0,0.7-0.5,1.2-1.2,1.2h-3.4v9.1c0,1.8,1.2,1.8,1.9,1.8c1,0,1.3-0.3,1.8-0.3
		C427.6,590.1,428.2,590.5,428.2,591.2z"/>
	<path class="st3" d="M445.6,584.8c0,4.7-3.1,7.9-7.7,7.9c-4.6,0-7.7-3.2-7.7-7.9c0-4.7,3-8,7.7-8
		C442.5,576.9,445.6,580.1,445.6,584.8z M442.8,584.8c0-4-2.7-5.4-4.9-5.4c-2.3,0-4.9,1.5-4.9,5.4c0,4,2.6,5.5,4.9,5.5
		C440.2,590.3,442.8,588.8,442.8,584.8z"/>
</g>
<g class="st2">
	<path class="st3" d="M358.1,609.4v17.9c0,0.8-0.6,1.4-1.4,1.4c-0.7,0-1.4-0.6-1.4-1.4v-17l-6.9,17.1c-0.3,0.8-1,1.3-1.9,1.3
		c-0.9,0-1.6-0.5-1.9-1.3l-6.9-17.1v17c0,0.8-0.6,1.4-1.4,1.4s-1.4-0.6-1.4-1.4v-17.9c0-1.1,0.9-2,2-2h1c0.8,0,1.5,0.5,1.8,1.3
		l6.8,17l6.8-17c0.3-0.7,1-1.3,1.8-1.3h1C357.3,607.4,358.1,608.3,358.1,609.4z"/>
	<path class="st3" d="M375.1,618.8v8.5c0,0.8-0.6,1.4-1.4,1.4s-1.4-0.6-1.4-1.4v-0.8c-1.1,1.1-2.8,2.3-5.6,2.3
		c-2.6,0-4.9-1.7-4.9-4.5c0-2.8,2.2-4.9,6.9-4.9h3.6v-0.2c0-2.7-1.3-3.7-4-3.7c-1.7,0-2.9,0.4-4,0.7c-0.1,0-0.3,0.1-0.4,0.1
		c-0.6,0-1.1-0.5-1.1-1.1c0-0.5,0.3-0.9,0.8-1.1c1.4-0.6,3.1-1.1,5.2-1.1C373.2,612.9,375.1,615.8,375.1,618.8z M372.4,624.1v-2.5
		h-3.3c-2.8,0-4.5,0.7-4.5,2.4c0,1.3,0.8,2.4,3.2,2.4C369.6,626.4,371.4,625.3,372.4,624.1z"/>
	<path class="st3" d="M388.6,614.2c0,0.8-0.6,1.3-1.4,1.3h-0.1c-2,0-3.6,1.1-4.6,2.6v9.1c0,0.8-0.6,1.4-1.4,1.4s-1.3-0.6-1.3-1.4
		v-12.9c0-0.8,0.6-1.4,1.3-1.4s1.4,0.6,1.4,1.4v1.3c1.1-1.4,2.6-2.8,4.7-2.8h0.1C388.1,612.9,388.6,613.5,388.6,614.2z"/>
	<path class="st3" d="M404.3,627.3c0,0.8-0.6,1.3-1.4,1.3c-0.4,0-0.8-0.2-1.1-0.6l-5.2-7l-2.6,2.4v3.9c0,0.8-0.6,1.4-1.4,1.4
		s-1.3-0.6-1.3-1.4v-19.5c0-0.8,0.6-1.4,1.3-1.4s1.4,0.6,1.4,1.4v12.3l7.1-6.6c0.2-0.2,0.5-0.4,0.9-0.4c1,0,1.3,0.7,1.3,1.3
		c0,0.2-0.1,0.6-0.5,1l-4.3,3.9l5.4,7.2C404.2,626.7,404.3,627,404.3,627.3z"/>
	<path class="st3" d="M420.6,626.3c0,0.5-0.4,0.9-0.8,1.1c-1.3,0.8-2.6,1.3-5.2,1.3c-4.9,0-7.8-2.9-7.8-7.9c0-4,2.2-8,7.2-8
		c4.6,0,7.1,3.6,7.1,7.6c0,0.8-0.5,1.4-1.4,1.4h-10.2c0.3,2.7,2,4.4,5.2,4.4c1.8,0,2.9-0.4,4-0.9c0.2-0.1,0.3-0.1,0.5-0.1
		C420,625.2,420.6,625.6,420.6,626.3z M409.6,619.6h8.8c-0.2-3.1-2.5-4.4-4.4-4.4S409.8,616.4,409.6,619.6z"/>
	<path class="st3" d="M433.4,627.2c0,0.5-0.3,0.8-0.7,1c-0.7,0.3-1.5,0.5-2.5,0.5c-1.4,0-4.4-0.2-4.4-4v-9.3h-2.1
		c-0.3,0-0.6-0.2-0.6-0.6c0-0.2,0.1-0.4,0.3-0.5l4.1-4c0.1-0.1,0.3-0.3,0.5-0.3c0.3,0,0.6,0.3,0.6,0.6v2.4h3.4
		c0.7,0,1.2,0.5,1.2,1.2c0,0.7-0.5,1.2-1.2,1.2h-3.4v9.1c0,1.8,1.2,1.8,1.9,1.8c1,0,1.3-0.3,1.8-0.3
		C432.8,626.1,433.4,626.5,433.4,627.2z"/>
</g>
<rect x="578.9" y="553.5" class="st1" width="185.8" height="109.7"/>
<g class="st2">
	<path class="st3" d="M617.6,573.4v17.9c0,0.8-0.6,1.4-1.4,1.4c-0.7,0-1.4-0.6-1.4-1.4v-17l-6.9,17.1c-0.3,0.8-1,1.3-1.9,1.3
		c-0.9,0-1.6-0.5-1.9-1.3l-6.9-17.1v17c0,0.8-0.6,1.4-1.4,1.4s-1.4-0.6-1.4-1.4v-17.9c0-1.1,0.9-2,2-2h1c0.8,0,1.5,0.5,1.8,1.3
		l6.8,17l6.8-17c0.3-0.7,1-1.3,1.8-1.3h1C616.8,571.4,617.6,572.3,617.6,573.4z"/>
	<path class="st3" d="M636.9,584.8c0,4.7-3.1,7.9-7.7,7.9c-4.6,0-7.7-3.2-7.7-7.9c0-4.7,3-8,7.7-8
		C633.9,576.9,636.9,580.1,636.9,584.8z M634.2,584.8c0-4-2.7-5.4-4.9-5.4c-2.3,0-4.9,1.5-4.9,5.4c0,4,2.6,5.5,4.9,5.5
		C631.5,590.3,634.2,588.8,634.2,584.8z"/>
	<path class="st3" d="M655.8,584.8c0,5.1-3.6,7.9-7.3,7.9c-2.1,0-3.7-0.8-5.1-2.3v0.8c0,0.8-0.6,1.4-1.4,1.4c-0.8,0-1.3-0.6-1.3-1.4
		v-19.5c0-0.8,0.6-1.4,1.3-1.4c0.8,0,1.4,0.6,1.4,1.4v7.3c1.4-1.4,3-2.3,5.1-2.3C652.2,576.9,655.8,579.7,655.8,584.8z M653.1,584.8
		c0-3.5-2.1-5.4-4.9-5.4c-1.9,0-3.6,1-4.7,2.2v6.3c1.2,1.3,2.8,2.2,4.7,2.2C651,590.2,653.1,588.4,653.1,584.8z"/>
	<path class="st3" d="M662.8,572.5c0,0.8-0.7,1.5-1.5,1.5c0,0-0.1,0-0.2,0c-0.8,0-1.5-0.7-1.5-1.5c0,0,0,0,0-0.1
		c0-0.8,0.7-1.5,1.5-1.5c0.1,0,0.1,0,0.2,0c0.8,0,1.5,0.7,1.5,1.5C662.8,572.4,662.8,572.5,662.8,572.5z M662.5,578.4v12.9
		c0,0.8-0.6,1.4-1.4,1.4c-0.8,0-1.4-0.6-1.4-1.4v-12.9c0-0.8,0.6-1.4,1.4-1.4C661.9,577,662.5,577.6,662.5,578.4z"/>
	<path class="st3" d="M670.3,571.8v19.5c0,0.8-0.6,1.4-1.4,1.4c-0.8,0-1.4-0.6-1.4-1.4v-19.5c0-0.8,0.6-1.4,1.4-1.4
		C669.7,570.4,670.3,571,670.3,571.8z"/>
	<path class="st3" d="M688.2,590.3c0,0.5-0.4,0.9-0.8,1.1c-1.3,0.8-2.6,1.3-5.2,1.3c-4.9,0-7.8-2.9-7.8-7.9c0-4,2.2-8,7.2-8
		c4.6,0,7.1,3.6,7.1,7.6c0,0.8-0.5,1.4-1.4,1.4h-10.2c0.3,2.7,2,4.4,5.2,4.4c1.8,0,2.9-0.4,4-0.9c0.2-0.1,0.3-0.1,0.5-0.1
		C687.6,589.2,688.2,589.6,688.2,590.3z M677.2,583.6h8.8c-0.2-3.1-2.5-4.4-4.4-4.4S677.4,580.4,677.2,583.6z"/>
	<path class="st3" d="M712.2,582.8v8.5c0,0.8-0.6,1.4-1.4,1.4s-1.4-0.6-1.4-1.4v-0.8c-1.1,1.1-2.8,2.3-5.6,2.3
		c-2.6,0-4.9-1.7-4.9-4.5c0-2.8,2.2-4.9,6.9-4.9h3.6v-0.2c0-2.7-1.3-3.7-4-3.7c-1.7,0-2.9,0.4-4,0.7c-0.1,0-0.3,0.1-0.4,0.1
		c-0.6,0-1.1-0.5-1.1-1.1c0-0.5,0.3-0.9,0.8-1.1c1.4-0.6,3.1-1.1,5.2-1.1C710.3,576.9,712.2,579.8,712.2,582.8z M709.5,588.1v-2.5
		h-3.3c-2.8,0-4.5,0.7-4.5,2.4c0,1.3,0.8,2.4,3.2,2.4C706.7,590.4,708.5,589.3,709.5,588.1z"/>
	<path class="st3" d="M730.5,582.7v8.5c0,0.8-0.6,1.4-1.4,1.4s-1.4-0.6-1.4-1.4V583c0-2.3-1-3.7-3.3-3.7c-2.2,0-3.7,1.4-4.9,2.9v9
		c0,0.8-0.6,1.4-1.4,1.4s-1.3-0.6-1.3-1.4v-12.9c0-0.8,0.6-1.4,1.3-1.4s1.4,0.6,1.4,1.4v1.2c1.3-1.4,2.9-2.8,5.6-2.8
		C728.6,576.9,730.5,579.5,730.5,582.7z"/>
	<path class="st3" d="M746.6,579.1v-7.3c0-0.8,0.6-1.4,1.4-1.4c0.8,0,1.4,0.6,1.4,1.4v19.5c0,0.8-0.6,1.4-1.4,1.4
		c-0.8,0-1.4-0.6-1.4-1.4v-0.8c-1.4,1.4-3,2.3-5.1,2.3c-3.6,0-7.3-2.8-7.3-7.9s3.6-8,7.3-8C743.6,576.9,745.2,577.7,746.6,579.1z
		 M746.6,588v-6.3c-1.2-1.3-2.8-2.2-4.7-2.2c-2.9,0-4.9,1.9-4.9,5.4s2.1,5.4,4.9,5.4C743.8,590.2,745.4,589.3,746.6,588z"/>
</g>
<g class="st2">
	<path class="st3" d="M633.1,618c0,5-3.4,10.5-10.6,10.5h-6c-0.8,0-1.4-0.6-1.4-1.3v-18.2c0-0.8,0.6-1.4,1.4-1.4h6
		C629.7,607.5,633.1,612.9,633.1,618z M630.4,618c0-4.7-3.2-7.9-8.2-7.9h-4.3v15.8h4.3C627.2,625.9,630.4,622.7,630.4,618z"/>
	<path class="st3" d="M649.8,626.3c0,0.5-0.4,0.9-0.8,1.1c-1.3,0.8-2.6,1.3-5.2,1.3c-4.9,0-7.8-2.9-7.8-7.9c0-4,2.2-8,7.2-8
		c4.6,0,7.1,3.6,7.1,7.6c0,0.8-0.5,1.4-1.4,1.4h-10.2c0.3,2.7,2,4.4,5.2,4.4c1.8,0,2.9-0.4,4-0.9c0.2-0.1,0.3-0.1,0.5-0.1
		C649.3,625.2,649.8,625.6,649.8,626.3z M638.8,619.6h8.8c-0.2-3.1-2.5-4.4-4.4-4.4S639,616.4,638.8,619.6z"/>
	<path class="st3" d="M664.9,624.3c0,2.4-1.9,4.4-5.8,4.4c-2.2,0-3.9-0.5-5.5-1.3c-0.3-0.2-0.5-0.6-0.5-1c0-0.6,0.5-1.2,1.2-1.2
		c0.2,0,0.3,0,0.5,0.1c1.1,0.5,2.3,0.9,4.1,0.9c2.3,0,3.3-0.8,3.3-2.1c0-2.6-9-1-9-6.5c0-2.7,1.9-4.7,5.8-4.7c1.6,0,3.1,0.3,4.4,0.8
		c0.6,0.2,0.9,0.7,0.9,1.1c0,0.6-0.5,1.2-1.2,1.2c-0.2,0-0.3,0-0.4-0.1c-1-0.3-2.1-0.5-3.4-0.5c-2.2,0-3.4,0.9-3.4,2.1
		C655.8,620.6,664.9,618.4,664.9,624.3z"/>
	<path class="st3" d="M681.4,627.3c0,0.8-0.6,1.3-1.4,1.3c-0.4,0-0.8-0.2-1.1-0.6l-5.2-7l-2.6,2.4v3.9c0,0.8-0.6,1.4-1.4,1.4
		s-1.3-0.6-1.3-1.4v-19.5c0-0.8,0.6-1.4,1.3-1.4s1.4,0.6,1.4,1.4v12.3l7.1-6.6c0.2-0.2,0.5-0.4,0.9-0.4c1,0,1.3,0.7,1.3,1.3
		c0,0.2-0.1,0.6-0.5,1l-4.3,3.9l5.4,7.2C681.3,626.7,681.4,627,681.4,627.3z"/>
	<path class="st3" d="M693.4,627.2c0,0.5-0.3,0.8-0.7,1c-0.7,0.3-1.5,0.5-2.5,0.5c-1.4,0-4.4-0.2-4.4-4v-9.3h-2.1
		c-0.3,0-0.6-0.2-0.6-0.6c0-0.2,0.1-0.4,0.3-0.5l4.1-4c0.1-0.1,0.3-0.3,0.5-0.3c0.3,0,0.6,0.3,0.6,0.6v2.4h3.4
		c0.7,0,1.2,0.5,1.2,1.2c0,0.7-0.5,1.2-1.2,1.2h-3.4v9.1c0,1.8,1.2,1.8,1.9,1.8c1,0,1.3-0.3,1.8-0.3
		C692.8,626.1,693.4,626.5,693.4,627.2z"/>
	<path class="st3" d="M710.8,620.8c0,4.7-3.1,7.9-7.7,7.9c-4.6,0-7.7-3.2-7.7-7.9c0-4.7,3-8,7.7-8
		C707.7,612.9,710.8,616.1,710.8,620.8z M708,620.8c0-4-2.7-5.4-4.9-5.4c-2.3,0-4.9,1.5-4.9,5.4c0,4,2.6,5.5,4.9,5.5
		C705.4,626.3,708,624.8,708,620.8z"/>
	<path class="st3" d="M717.3,626.5v7.6c0,0.8-0.6,1.4-1.4,1.4c-0.8,0-1.3-0.6-1.3-1.4v-19.8c0-0.8,0.6-1.3,1.3-1.3
		c0.8,0,1.4,0.6,1.4,1.3v0.8c1.4-1.4,3-2.3,5.1-2.3c3.6,0,7.3,2.9,7.3,8s-3.6,7.9-7.3,7.9C720.3,628.8,718.7,627.9,717.3,626.5z
		 M717.3,617.7v6.3c1.2,1.3,2.8,2.2,4.7,2.2c2.9,0,4.9-1.9,4.9-5.4s-2.1-5.4-4.9-5.4C720.1,615.4,718.5,616.4,717.3,617.7z"/>
</g>
<rect x="867.6" y="553.5" class="st1" width="185.8" height="109.7"/>
<g class="st2">
	<path class="st3" d="M940.3,589.8c0,0.6-0.3,0.9-0.7,1.1c-1.9,1-3.9,1.9-6.8,1.9c-6,0-10.5-4.1-10.5-10.8s4.5-10.8,10.5-10.8
		c2.9,0,5,0.8,6.8,1.9c0.4,0.2,0.6,0.5,0.7,1.1c0,0.6-0.5,1.2-1.2,1.2c-0.2,0-0.4,0-0.5-0.1c-1.6-0.8-3.1-1.4-5.5-1.4
		c-5.3,0-8,3.5-8,8.2s2.7,8.2,8,8.2c2.3,0,3.9-0.6,5.5-1.4c0.2-0.1,0.4-0.1,0.5-0.1C939.9,588.6,940.4,589.2,940.3,589.8z"/>
	<path class="st3" d="M952.7,578.2c0,0.8-0.6,1.3-1.4,1.3h-0.1c-2,0-3.6,1.1-4.6,2.6v9.1c0,0.8-0.6,1.4-1.4,1.4s-1.3-0.6-1.3-1.4
		v-12.9c0-0.8,0.6-1.4,1.3-1.4s1.4,0.6,1.4,1.4v1.3c1.1-1.4,2.6-2.8,4.7-2.8h0.1C952.1,576.9,952.7,577.5,952.7,578.2z"/>
	<path class="st3" d="M969.8,584.8c0,4.7-3.1,7.9-7.7,7.9c-4.6,0-7.7-3.2-7.7-7.9c0-4.7,3-8,7.7-8
		C966.7,576.9,969.8,580.1,969.8,584.8z M967.1,584.8c0-4-2.7-5.4-5-5.4c-2.3,0-4.9,1.5-4.9,5.4c0,4,2.6,5.5,4.9,5.5
		C964.4,590.3,967.1,588.8,967.1,584.8z"/>
	<path class="st3" d="M984.4,588.3c0,2.4-2,4.4-5.8,4.4c-2.2,0-3.9-0.5-5.5-1.3c-0.3-0.2-0.5-0.6-0.5-1c0-0.6,0.5-1.2,1.2-1.2
		c0.2,0,0.3,0,0.5,0.1c1.1,0.5,2.3,0.9,4.1,0.9c2.3,0,3.3-0.8,3.3-2.1c0-2.6-9-1-9-6.5c0-2.7,1.9-4.7,5.8-4.7c1.6,0,3.1,0.3,4.3,0.8
		c0.6,0.2,0.9,0.7,0.9,1.1c0,0.6-0.5,1.2-1.2,1.2c-0.1,0-0.3,0-0.4-0.1c-1-0.3-2.1-0.5-3.4-0.5c-2.2,0-3.5,0.9-3.5,2.1
		C975.4,584.6,984.4,582.4,984.4,588.3z"/>
	<path class="st3" d="M998.8,588.3c0,2.4-2,4.4-5.8,4.4c-2.2,0-3.9-0.5-5.5-1.3c-0.3-0.2-0.5-0.6-0.5-1c0-0.6,0.5-1.2,1.2-1.2
		c0.2,0,0.3,0,0.5,0.1c1.1,0.5,2.3,0.9,4.1,0.9c2.3,0,3.3-0.8,3.3-2.1c0-2.6-9-1-9-6.5c0-2.7,2-4.7,5.8-4.7c1.7,0,3.1,0.3,4.4,0.8
		c0.6,0.2,0.9,0.7,0.9,1.1c0,0.6-0.5,1.2-1.2,1.2c-0.2,0-0.3,0-0.4-0.1c-1-0.3-2.1-0.5-3.4-0.5c-2.2,0-3.4,0.9-3.4,2.1
		C989.8,584.6,998.8,582.4,998.8,588.3z"/>
</g>
<g class="st2">
	<path class="st3" d="M922.7,625.8c0,0.6-0.3,0.9-0.7,1.1c-1.9,1-3.9,1.9-6.8,1.9c-6,0-10.5-4.1-10.5-10.8s4.5-10.8,10.5-10.8
		c2.9,0,5,0.8,6.8,1.9c0.4,0.2,0.6,0.5,0.7,1.1c0,0.6-0.5,1.2-1.2,1.2c-0.2,0-0.4,0-0.5-0.1c-1.6-0.8-3.1-1.4-5.5-1.4
		c-5.3,0-8,3.5-8,8.2s2.7,8.2,8,8.2c2.3,0,3.9-0.6,5.5-1.4c0.2-0.1,0.4-0.1,0.5-0.1C922.3,624.6,922.8,625.2,922.7,625.8z"/>
	<path class="st3" d="M940.3,620.8c0,4.7-3.1,7.9-7.7,7.9c-4.6,0-7.7-3.2-7.7-7.9c0-4.7,3-8,7.7-8
		C937.3,612.9,940.3,616.1,940.3,620.8z M937.6,620.8c0-4-2.7-5.4-4.9-5.4c-2.3,0-4.9,1.5-4.9,5.4c0,4,2.6,5.5,4.9,5.5
		C934.9,626.3,937.6,624.8,937.6,620.8z"/>
	<path class="st3" d="M944,622.9v-8.5c0-0.8,0.6-1.3,1.4-1.3s1.4,0.6,1.4,1.3v8.2c0,2.3,1,3.7,3.3,3.7c2.2,0,3.7-1.4,4.9-2.9v-9
		c0-0.8,0.6-1.3,1.4-1.3s1.3,0.6,1.3,1.3v12.9c0,0.8-0.6,1.4-1.3,1.4s-1.4-0.6-1.4-1.4V626c-1.3,1.4-2.9,2.8-5.6,2.8
		C946,628.8,944,626.1,944,622.9z"/>
	<path class="st3" d="M976.1,618.7v8.5c0,0.8-0.6,1.4-1.4,1.4s-1.3-0.6-1.3-1.4V619c0-2.3-1-3.7-3.3-3.7c-2.2,0-3.7,1.4-4.9,2.9v9
		c0,0.8-0.6,1.4-1.4,1.4s-1.3-0.6-1.3-1.4v-12.9c0-0.8,0.6-1.4,1.3-1.4s1.4,0.6,1.4,1.4v1.2c1.3-1.4,2.9-2.8,5.6-2.8
		C974.2,612.9,976.1,615.5,976.1,618.7z"/>
	<path class="st3" d="M989.1,627.2c0,0.5-0.3,0.8-0.7,1c-0.7,0.3-1.5,0.5-2.5,0.5c-1.4,0-4.4-0.2-4.4-4v-9.3h-2.1
		c-0.3,0-0.6-0.2-0.6-0.6c0-0.2,0.1-0.4,0.3-0.5l4.1-4c0.1-0.1,0.3-0.3,0.5-0.3c0.3,0,0.6,0.3,0.6,0.6v2.4h3.4
		c0.7,0,1.2,0.5,1.2,1.2c0,0.7-0.5,1.2-1.2,1.2h-3.4v9.1c0,1.8,1.2,1.8,2,1.8c1,0,1.3-0.3,1.8-0.3
		C988.6,626.1,989.1,626.5,989.1,627.2z"/>
	<path class="st3" d="M1001,614.2c0,0.8-0.6,1.3-1.4,1.3h-0.1c-2,0-3.6,1.1-4.7,2.6v9.1c0,0.8-0.6,1.4-1.4,1.4s-1.3-0.6-1.3-1.4
		v-12.9c0-0.8,0.6-1.4,1.3-1.4s1.4,0.6,1.4,1.4v1.3c1.1-1.4,2.6-2.8,4.7-2.8h0.2C1000.4,612.9,1001,613.5,1001,614.2z"/>
	<path class="st3" d="M1016.5,614.9l-8.2,19.7c-0.2,0.5-0.6,0.9-1.3,0.9c-0.7,0-1.3-0.6-1.3-1.3c0-0.1,0-0.3,0.1-0.5l2-5l-5.6-13.7
		c-0.1-0.2-0.1-0.4-0.1-0.6c0-0.8,0.6-1.4,1.3-1.4c0.6,0,1,0.4,1.3,0.8l4.6,11.5l4.7-11.4c0.2-0.5,0.7-0.9,1.3-0.9
		c0.8,0,1.4,0.6,1.4,1.4C1016.6,614.6,1016.6,614.8,1016.5,614.9z"/>
</g>
<rect x="1156.2" y="553.5" class="st1" width="185.8" height="109.7"/>
<g class="st2">
	<path class="st3" d="M1202.5,591.3c0,0.8-0.6,1.4-1.3,1.4c-0.8,0-1.4-0.5-1.4-1.4v-0.9c0-2-0.1-6.1-4.6-6.1h-6.2v7
		c0,0.8-0.6,1.4-1.4,1.4s-1.4-0.6-1.4-1.4v-18.4c0-0.8,0.6-1.4,1.4-1.4h7c5.7,0,8.2,2.6,8.2,6.1c0,2.3-1.3,4.5-3.9,5.4
		c3.3,0.9,3.8,5.2,3.8,6.8V591.3z M1199.9,577.8c0-2.2-1.3-3.7-5.8-3.7h-5.3v7.6h5.4C1197.7,581.7,1199.9,580.4,1199.9,577.8z"/>
	<path class="st3" d="M1219.9,590.3c0,0.5-0.4,0.9-0.8,1.1c-1.3,0.8-2.6,1.3-5.2,1.3c-4.9,0-7.8-2.9-7.8-7.9c0-4,2.2-8,7.2-8
		c4.6,0,7.1,3.6,7.1,7.6c0,0.8-0.5,1.4-1.4,1.4h-10.2c0.3,2.7,2,4.4,5.2,4.4c1.8,0,2.9-0.4,4.1-0.9c0.2-0.1,0.3-0.1,0.5-0.1
		C1219.3,589.2,1219.9,589.6,1219.9,590.3z M1208.8,583.6h8.8c-0.2-3.1-2.5-4.4-4.4-4.4S1209,580.4,1208.8,583.6z"/>
	<path class="st3" d="M1247,582.6v8.6c0,0.8-0.6,1.4-1.4,1.4s-1.4-0.6-1.4-1.4v-8.1c0-2.5-0.8-3.8-3.1-3.8c-2.3,0-3.5,1.5-4.3,2.9v9
		c0,0.8-0.6,1.4-1.4,1.4s-1.4-0.6-1.4-1.4v-8.1c0-2.5-0.8-3.8-3.1-3.8s-3.5,1.5-4.3,2.9v9c0,0.8-0.6,1.4-1.4,1.4s-1.3-0.6-1.3-1.4
		v-12.9c0-0.8,0.6-1.4,1.3-1.4s1.4,0.6,1.4,1.4v1.2c0.8-1.2,2.2-2.8,5.1-2.8c2.4,0,4,1.5,4.6,3.1c0.7-1.1,2.2-3.1,5.5-3.1
		C1245.5,576.9,1247,580,1247,582.6z"/>
	<path class="st3" d="M1266.1,584.8c0,4.7-3.1,7.9-7.7,7.9c-4.7,0-7.7-3.2-7.7-7.9c0-4.7,3-8,7.7-8
		C1263,576.9,1266.1,580.1,1266.1,584.8z M1263.3,584.8c0-4-2.7-5.4-4.9-5.4c-2.3,0-5,1.5-5,5.4c0,4,2.6,5.5,5,5.5
		C1260.7,590.3,1263.3,588.8,1263.3,584.8z"/>
	<path class="st3" d="M1282.4,578.4c0,0.2-0.1,0.4-0.2,0.6l-5.2,12.5c-0.3,0.6-0.9,1.1-1.6,1.1h-0.3c-0.8,0-1.4-0.5-1.6-1.1
		l-5.2-12.5c-0.1-0.2-0.2-0.4-0.2-0.6c0-0.8,0.6-1.4,1.3-1.4c0.5,0,1.1,0.3,1.2,0.8l4.6,11.6l4.6-11.6c0.2-0.5,0.7-0.8,1.2-0.8
		C1281.8,577,1282.4,577.6,1282.4,578.4z"/>
	<path class="st3" d="M1298.3,590.3c0,0.5-0.4,0.9-0.8,1.1c-1.3,0.8-2.6,1.3-5.2,1.3c-4.9,0-7.8-2.9-7.8-7.9c0-4,2.2-8,7.2-8
		c4.6,0,7.1,3.6,7.1,7.6c0,0.8-0.5,1.4-1.4,1.4h-10.2c0.3,2.7,2,4.4,5.2,4.4c1.8,0,2.9-0.4,4-0.9c0.2-0.1,0.3-0.1,0.5-0.1
		C1297.7,589.2,1298.3,589.6,1298.3,590.3z M1287.2,583.6h8.8c-0.2-3.1-2.5-4.4-4.4-4.4S1287.4,580.4,1287.2,583.6z"/>
	<path class="st3" d="M1313.3,588.3c0,2.4-2,4.4-5.8,4.4c-2.2,0-3.9-0.5-5.5-1.3c-0.3-0.2-0.5-0.6-0.5-1c0-0.6,0.5-1.2,1.2-1.2
		c0.2,0,0.3,0,0.5,0.1c1.1,0.5,2.3,0.9,4.1,0.9c2.3,0,3.3-0.8,3.3-2.1c0-2.6-9-1-9-6.5c0-2.7,1.9-4.7,5.8-4.7c1.7,0,3.1,0.3,4.3,0.8
		c0.6,0.2,0.9,0.7,0.9,1.1c0,0.6-0.5,1.2-1.2,1.2c-0.1,0-0.3,0-0.4-0.1c-1-0.3-2.1-0.5-3.4-0.5c-2.2,0-3.5,0.9-3.5,2.1
		C1304.3,584.6,1313.3,582.4,1313.3,588.3z"/>
</g>
<g class="st2">
	<path class="st3" d="M1193.9,609.4v17.9c0,0.8-0.6,1.4-1.4,1.4c-0.7,0-1.4-0.6-1.4-1.4v-17l-6.9,17.1c-0.3,0.8-1,1.3-1.9,1.3
		c-0.9,0-1.6-0.5-1.9-1.3l-6.9-17.1v17c0,0.8-0.6,1.4-1.4,1.4s-1.3-0.6-1.3-1.4v-17.9c0-1.1,0.9-2,2-2h1c0.8,0,1.5,0.5,1.8,1.3
		l6.8,17l6.8-17c0.3-0.7,1-1.3,1.8-1.3h1C1193,607.4,1193.9,608.3,1193.9,609.4z"/>
	<path class="st3" d="M1202,608.5c0,0.8-0.7,1.5-1.5,1.5c0,0-0.1,0-0.2,0c-0.8,0-1.5-0.7-1.5-1.5c0,0,0,0,0-0.1
		c0-0.8,0.7-1.5,1.5-1.5c0.1,0,0.1,0,0.2,0c0.8,0,1.5,0.7,1.5,1.5C1202,608.4,1202,608.5,1202,608.5z M1201.7,614.4v12.9
		c0,0.8-0.6,1.4-1.4,1.4c-0.8,0-1.3-0.6-1.3-1.4v-12.9c0-0.8,0.6-1.4,1.3-1.4C1201.1,613,1201.7,613.6,1201.7,614.4z"/>
	<path class="st3" d="M1218.1,615.1v-7.3c0-0.8,0.6-1.4,1.4-1.4c0.8,0,1.3,0.6,1.3,1.4v19.5c0,0.8-0.6,1.4-1.3,1.4
		c-0.8,0-1.4-0.6-1.4-1.4v-0.8c-1.4,1.4-3,2.3-5.1,2.3c-3.6,0-7.3-2.8-7.3-7.9s3.6-8,7.3-8C1215,612.9,1216.7,613.7,1218.1,615.1z
		 M1218.1,624v-6.3c-1.2-1.3-2.8-2.2-4.7-2.2c-2.8,0-4.9,1.9-4.9,5.4s2.1,5.4,4.9,5.4C1215.3,626.2,1216.9,625.3,1218.1,624z"/>
	<path class="st3" d="M1237,615.1v-7.3c0-0.8,0.6-1.4,1.4-1.4c0.8,0,1.3,0.6,1.3,1.4v19.5c0,0.8-0.6,1.4-1.3,1.4
		c-0.8,0-1.4-0.6-1.4-1.4v-0.8c-1.4,1.4-3,2.3-5.1,2.3c-3.6,0-7.3-2.8-7.3-7.9s3.6-8,7.3-8C1234,612.9,1235.6,613.7,1237,615.1z
		 M1237,624v-6.3c-1.2-1.3-2.8-2.2-4.7-2.2c-2.8,0-4.9,1.9-4.9,5.4s2.1,5.4,4.9,5.4C1234.2,626.2,1235.8,625.3,1237,624z"/>
	<path class="st3" d="M1247.4,607.8v19.5c0,0.8-0.6,1.4-1.4,1.4c-0.8,0-1.3-0.6-1.3-1.4v-19.5c0-0.8,0.6-1.4,1.3-1.4
		C1246.8,606.4,1247.4,607,1247.4,607.8z"/>
	<path class="st3" d="M1265.3,626.3c0,0.5-0.4,0.9-0.8,1.1c-1.3,0.8-2.6,1.3-5.2,1.3c-4.9,0-7.8-2.9-7.8-7.9c0-4,2.2-8,7.2-8
		c4.6,0,7.1,3.6,7.1,7.6c0,0.8-0.5,1.4-1.4,1.4h-10.2c0.3,2.7,2,4.4,5.2,4.4c1.8,0,2.9-0.4,4-0.9c0.2-0.1,0.3-0.1,0.5-0.1
		C1264.7,625.2,1265.3,625.6,1265.3,626.3z M1254.3,619.6h8.8c-0.2-3.1-2.5-4.4-4.4-4.4S1254.4,616.4,1254.3,619.6z"/>
	<path class="st3" d="M1292.5,618.6v8.6c0,0.8-0.6,1.4-1.4,1.4s-1.4-0.6-1.4-1.4v-8.1c0-2.5-0.8-3.8-3.1-3.8c-2.3,0-3.5,1.5-4.3,2.9
		v9c0,0.8-0.6,1.4-1.4,1.4s-1.4-0.6-1.4-1.4v-8.1c0-2.5-0.8-3.8-3.1-3.8s-3.5,1.5-4.3,2.9v9c0,0.8-0.6,1.4-1.4,1.4s-1.3-0.6-1.3-1.4
		v-12.9c0-0.8,0.6-1.4,1.3-1.4s1.4,0.6,1.4,1.4v1.2c0.8-1.2,2.2-2.8,5.1-2.8c2.4,0,4,1.5,4.6,3.1c0.7-1.1,2.2-3.1,5.5-3.1
		C1291,612.9,1292.5,616,1292.5,618.6z"/>
	<path class="st3" d="M1310,626.3c0,0.5-0.4,0.9-0.8,1.1c-1.3,0.8-2.6,1.3-5.2,1.3c-4.9,0-7.8-2.9-7.8-7.9c0-4,2.2-8,7.2-8
		c4.6,0,7.1,3.6,7.1,7.6c0,0.8-0.5,1.4-1.4,1.4h-10.2c0.3,2.7,2,4.4,5.2,4.4c1.8,0,2.9-0.4,4-0.9c0.2-0.1,0.3-0.1,0.5-0.1
		C1309.4,625.2,1310,625.6,1310,626.3z M1298.9,619.6h8.8c-0.2-3.1-2.5-4.4-4.4-4.4S1299.1,616.4,1298.9,619.6z"/>
	<path class="st3" d="M1327.9,618.7v8.5c0,0.8-0.6,1.4-1.4,1.4s-1.4-0.6-1.4-1.4V619c0-2.3-1-3.7-3.3-3.7c-2.2,0-3.7,1.4-4.9,2.9v9
		c0,0.8-0.6,1.4-1.4,1.4s-1.3-0.6-1.3-1.4v-12.9c0-0.8,0.6-1.4,1.3-1.4s1.4,0.6,1.4,1.4v1.2c1.3-1.4,2.9-2.8,5.6-2.8
		C1325.9,612.9,1327.9,615.5,1327.9,618.7z"/>
</g>
<rect x="1436.8" y="553.5" class="st1" width="201.7" height="109.7"/>
<g class="st2">
	<path class="st3" d="M1461.8,582c0,5-3.4,10.5-10.6,10.5h-6c-0.8,0-1.3-0.6-1.3-1.3v-18.2c0-0.8,0.6-1.4,1.3-1.4h6
		C1458.4,571.5,1461.8,576.9,1461.8,582z M1459.1,582c0-4.7-3.2-7.9-8.2-7.9h-4.3v15.8h4.3C1455.9,589.9,1459.1,586.7,1459.1,582z"
		/>
	<path class="st3" d="M1478.5,590.3c0,0.5-0.4,0.9-0.8,1.1c-1.3,0.8-2.6,1.3-5.2,1.3c-4.9,0-7.8-2.9-7.8-7.9c0-4,2.2-8,7.2-8
		c4.6,0,7.1,3.6,7.1,7.6c0,0.8-0.5,1.4-1.4,1.4h-10.2c0.3,2.7,2,4.4,5.2,4.4c1.8,0,2.9-0.4,4-0.9c0.2-0.1,0.3-0.1,0.5-0.1
		C1477.9,589.2,1478.5,589.6,1478.5,590.3z M1467.4,583.6h8.8c-0.2-3.1-2.5-4.4-4.4-4.4S1467.6,580.4,1467.4,583.6z"/>
	<path class="st3" d="M1505.6,582.6v8.6c0,0.8-0.6,1.4-1.4,1.4s-1.4-0.6-1.4-1.4v-8.1c0-2.5-0.8-3.8-3.1-3.8s-3.5,1.5-4.3,2.9v9
		c0,0.8-0.6,1.4-1.4,1.4s-1.4-0.6-1.4-1.4v-8.1c0-2.5-0.8-3.8-3.1-3.8c-2.3,0-3.5,1.5-4.3,2.9v9c0,0.8-0.6,1.4-1.4,1.4
		s-1.3-0.6-1.3-1.4v-12.9c0-0.8,0.6-1.4,1.3-1.4s1.4,0.6,1.4,1.4v1.2c0.8-1.2,2.2-2.8,5.1-2.8c2.4,0,4,1.5,4.6,3.1
		c0.7-1.1,2.2-3.1,5.5-3.1C1504.2,576.9,1505.6,580,1505.6,582.6z"/>
	<path class="st3" d="M1524.7,584.8c0,4.7-3.1,7.9-7.7,7.9c-4.7,0-7.7-3.2-7.7-7.9c0-4.7,3-8,7.7-8
		C1521.6,576.9,1524.7,580.1,1524.7,584.8z M1522,584.8c0-4-2.7-5.4-4.9-5.4c-2.3,0-4.9,1.5-4.9,5.4c0,4,2.6,5.5,4.9,5.5
		C1519.3,590.3,1522,588.8,1522,584.8z"/>
	<path class="st3" d="M1542.7,578.4v13.4c0,5-2.5,7.9-7,7.9c-2.4,0-5-0.7-6.4-1.6c-0.3-0.2-0.5-0.5-0.5-1c0-0.6,0.5-1.2,1.2-1.2
		c0.2,0,0.4,0.1,0.5,0.1c1.3,0.6,2.9,1.1,4.9,1.1c3.1,0,4.6-1.7,4.6-4.9v-2c-1.2,1.3-2.9,2.3-5.1,2.3c-3.3,0-7.3-2.5-7.3-7.8
		s3.9-7.8,7.3-7.8c2.2,0,3.9,1,5.1,2.3v-0.8c0-0.8,0.6-1.4,1.3-1.4S1542.7,577.6,1542.7,578.4z M1540,581.6
		c-1.1-1.1-2.5-2.2-4.6-2.2c-2.8,0-5.1,1.7-5.1,5.3s2.2,5.3,5.1,5.3c2.1,0,3.5-1.1,4.6-2.2V581.6z"/>
	<path class="st3" d="M1556.3,578.2c0,0.8-0.6,1.3-1.4,1.3h-0.2c-2,0-3.6,1.1-4.6,2.6v9.1c0,0.8-0.6,1.4-1.4,1.4s-1.3-0.6-1.3-1.4
		v-12.9c0-0.8,0.6-1.4,1.3-1.4s1.4,0.6,1.4,1.4v1.3c1.1-1.4,2.6-2.8,4.7-2.8h0.2C1555.8,576.9,1556.3,577.5,1556.3,578.2z"/>
	<path class="st3" d="M1571.1,582.8v8.5c0,0.8-0.6,1.4-1.4,1.4s-1.4-0.6-1.4-1.4v-0.8c-1.1,1.1-2.8,2.3-5.6,2.3
		c-2.6,0-4.9-1.7-4.9-4.5c0-2.8,2.2-4.9,6.9-4.9h3.6v-0.2c0-2.7-1.3-3.7-4-3.7c-1.7,0-2.9,0.4-4,0.7c-0.1,0-0.3,0.1-0.4,0.1
		c-0.6,0-1.1-0.5-1.1-1.1c0-0.5,0.3-0.9,0.8-1.1c1.4-0.6,3.1-1.1,5.2-1.1C1569.2,576.9,1571.1,579.8,1571.1,582.8z M1568.3,588.1
		v-2.5h-3.3c-2.8,0-4.5,0.7-4.5,2.4c0,1.3,0.8,2.4,3.2,2.4C1565.6,590.4,1567.3,589.3,1568.3,588.1z"/>
	<path class="st3" d="M1578.4,590.5v7.6c0,0.8-0.6,1.4-1.4,1.4c-0.8,0-1.3-0.6-1.3-1.4v-19.8c0-0.8,0.6-1.3,1.3-1.3
		c0.8,0,1.4,0.6,1.4,1.3v0.8c1.4-1.4,3-2.3,5.1-2.3c3.6,0,7.3,2.9,7.3,8s-3.6,7.9-7.3,7.9C1581.4,592.8,1579.8,591.9,1578.4,590.5z
		 M1578.4,581.7v6.3c1.2,1.3,2.8,2.2,4.7,2.2c2.8,0,4.9-1.9,4.9-5.4s-2.1-5.4-4.9-5.4C1581.2,579.4,1579.6,580.4,1578.4,581.7z"/>
	<path class="st3" d="M1608.3,582.7v8.5c0,0.8-0.6,1.4-1.4,1.4s-1.3-0.6-1.3-1.4V583c0-2.3-1-3.7-3.3-3.7c-2.2,0-3.7,1.4-4.9,2.9v9
		c0,0.8-0.6,1.4-1.4,1.4s-1.3-0.6-1.3-1.4v-19.5c0-0.8,0.6-1.4,1.3-1.4s1.4,0.6,1.4,1.4v7.8c1.3-1.4,2.9-2.8,5.6-2.8
		C1606.3,576.9,1608.3,579.5,1608.3,582.7z"/>
	<path class="st3" d="M1616,572.5c0,0.8-0.7,1.5-1.5,1.5c0,0-0.1,0-0.2,0c-0.8,0-1.5-0.7-1.5-1.5c0,0,0,0,0-0.1
		c0-0.8,0.7-1.5,1.5-1.5c0.1,0,0.1,0,0.2,0c0.8,0,1.5,0.7,1.5,1.5C1616,572.4,1616,572.5,1616,572.5z M1615.7,578.4v12.9
		c0,0.8-0.6,1.4-1.4,1.4c-0.8,0-1.4-0.6-1.4-1.4v-12.9c0-0.8,0.6-1.4,1.4-1.4C1615.1,577,1615.7,577.6,1615.7,578.4z"/>
	<path class="st3" d="M1633.1,590.3c0,0.4-0.2,0.8-0.6,1c-1,0.7-2.5,1.4-4.9,1.4c-4.3,0-8-2.9-8-7.9s3.8-8,8-8
		c2.4,0,3.9,0.8,4.9,1.4c0.4,0.2,0.6,0.6,0.6,1c0,0.6-0.5,1.2-1.1,1.2c-0.2,0-0.4,0-0.7-0.2c-1.1-0.5-1.9-1-3.5-1
		c-3.5,0-5.5,2.2-5.5,5.4s2,5.4,5.5,5.4c1.6,0,2.4-0.4,3.5-1c0.3-0.1,0.4-0.2,0.7-0.2C1632.6,589.1,1633.1,589.7,1633.1,590.3z"/>
</g>
<g class="st2">
	<path class="st3" d="M1486.1,608.8c0,0.7-0.6,1.3-1.3,1.3h-6.1v17.2c0,0.8-0.6,1.4-1.4,1.4s-1.3-0.6-1.3-1.4v-17.2h-6.1
		c-0.7,0-1.3-0.5-1.3-1.3s0.5-1.3,1.3-1.3h14.9C1485.5,607.5,1486.1,608.1,1486.1,608.8z"/>
	<path class="st3" d="M1498.6,618.8v8.5c0,0.8-0.6,1.4-1.4,1.4s-1.3-0.6-1.3-1.4v-0.8c-1.1,1.1-2.8,2.3-5.6,2.3
		c-2.6,0-4.9-1.7-4.9-4.5c0-2.8,2.2-4.9,6.9-4.9h3.6v-0.2c0-2.7-1.3-3.7-4-3.7c-1.7,0-2.9,0.4-4,0.7c-0.1,0-0.3,0.1-0.4,0.1
		c-0.6,0-1.1-0.5-1.1-1.1c0-0.5,0.3-0.9,0.8-1.1c1.4-0.6,3.1-1.1,5.2-1.1C1496.7,612.9,1498.6,615.8,1498.6,618.8z M1495.8,624.1
		v-2.5h-3.3c-2.8,0-4.5,0.7-4.5,2.4c0,1.3,0.8,2.4,3.2,2.4C1493.1,626.4,1494.8,625.3,1495.8,624.1z"/>
	<path class="st3" d="M1512.1,614.2c0,0.8-0.6,1.3-1.4,1.3h-0.2c-2,0-3.6,1.1-4.6,2.6v9.1c0,0.8-0.6,1.4-1.4,1.4s-1.3-0.6-1.3-1.4
		v-12.9c0-0.8,0.6-1.4,1.3-1.4s1.4,0.6,1.4,1.4v1.3c1.1-1.4,2.6-2.8,4.7-2.8h0.1C1511.5,612.9,1512.1,613.5,1512.1,614.2z"/>
	<path class="st3" d="M1529,614.4v13.4c0,5-2.5,7.9-7,7.9c-2.4,0-5-0.7-6.4-1.6c-0.3-0.2-0.5-0.5-0.5-1c0-0.6,0.5-1.2,1.2-1.2
		c0.2,0,0.4,0.1,0.5,0.1c1.3,0.6,2.9,1.1,5,1.1c3.1,0,4.6-1.7,4.6-4.9v-2c-1.2,1.3-2.9,2.3-5.1,2.3c-3.3,0-7.3-2.5-7.3-7.8
		s3.9-7.8,7.3-7.8c2.2,0,3.9,1,5.1,2.3v-0.8c0-0.8,0.6-1.4,1.3-1.4S1529,613.6,1529,614.4z M1526.2,617.6c-1.1-1.1-2.5-2.2-4.6-2.2
		c-2.8,0-5.1,1.7-5.1,5.3s2.2,5.3,5.1,5.3c2.1,0,3.5-1.1,4.6-2.2V617.6z"/>
	<path class="st3" d="M1546.6,626.3c0,0.5-0.4,0.9-0.8,1.1c-1.3,0.8-2.6,1.3-5.2,1.3c-4.9,0-7.8-2.9-7.8-7.9c0-4,2.2-8,7.2-8
		c4.6,0,7.1,3.6,7.1,7.6c0,0.8-0.5,1.4-1.4,1.4h-10.2c0.3,2.7,2,4.4,5.2,4.4c1.8,0,2.9-0.4,4-0.9c0.2-0.1,0.3-0.1,0.5-0.1
		C1546,625.2,1546.6,625.6,1546.6,626.3z M1535.6,619.6h8.8c-0.2-3.1-2.5-4.4-4.4-4.4S1535.8,616.4,1535.6,619.6z"/>
	<path class="st3" d="M1559.4,627.2c0,0.5-0.3,0.8-0.7,1c-0.7,0.3-1.5,0.5-2.5,0.5c-1.4,0-4.4-0.2-4.4-4v-9.3h-2.1
		c-0.3,0-0.6-0.2-0.6-0.6c0-0.2,0.1-0.4,0.3-0.5l4.1-4c0.1-0.1,0.3-0.3,0.5-0.3c0.3,0,0.6,0.3,0.6,0.6v2.4h3.4
		c0.7,0,1.2,0.5,1.2,1.2c0,0.7-0.5,1.2-1.2,1.2h-3.4v9.1c0,1.8,1.2,1.8,2,1.8c1,0,1.3-0.3,1.8-0.3
		C1558.8,626.1,1559.4,626.5,1559.4,627.2z"/>
	<path class="st3" d="M1565.5,608.5c0,0.8-0.7,1.5-1.5,1.5c0,0-0.1,0-0.2,0c-0.8,0-1.5-0.7-1.5-1.5c0,0,0,0,0-0.1
		c0-0.8,0.7-1.5,1.5-1.5c0.1,0,0.1,0,0.2,0c0.8,0,1.5,0.7,1.5,1.5C1565.5,608.4,1565.5,608.5,1565.5,608.5z M1565.2,614.4v12.9
		c0,0.8-0.6,1.4-1.4,1.4c-0.8,0-1.3-0.6-1.3-1.4v-12.9c0-0.8,0.6-1.4,1.3-1.4C1564.6,613,1565.2,613.6,1565.2,614.4z"/>
	<path class="st3" d="M1583.7,618.7v8.5c0,0.8-0.6,1.4-1.4,1.4s-1.4-0.6-1.4-1.4V619c0-2.3-1-3.7-3.3-3.7c-2.2,0-3.7,1.4-4.9,2.9v9
		c0,0.8-0.6,1.4-1.4,1.4s-1.3-0.6-1.3-1.4v-12.9c0-0.8,0.6-1.4,1.3-1.4s1.4,0.6,1.4,1.4v1.2c1.3-1.4,2.9-2.8,5.6-2.8
		C1581.8,612.9,1583.7,615.5,1583.7,618.7z"/>
	<path class="st3" d="M1602.5,614.4v13.4c0,5-2.5,7.9-7,7.9c-2.4,0-5-0.7-6.4-1.6c-0.3-0.2-0.5-0.5-0.5-1c0-0.6,0.5-1.2,1.2-1.2
		c0.2,0,0.4,0.1,0.5,0.1c1.3,0.6,2.9,1.1,5,1.1c3.1,0,4.6-1.7,4.6-4.9v-2c-1.2,1.3-2.9,2.3-5.1,2.3c-3.3,0-7.3-2.5-7.3-7.8
		s3.9-7.8,7.3-7.8c2.2,0,3.9,1,5.1,2.3v-0.8c0-0.8,0.6-1.4,1.3-1.4S1602.5,613.6,1602.5,614.4z M1599.8,617.6
		c-1.1-1.1-2.5-2.2-4.6-2.2c-2.8,0-5.1,1.7-5.1,5.3s2.2,5.3,5.1,5.3c2.1,0,3.5-1.1,4.6-2.2V617.6z"/>
</g>
</svg>
